<?xml version="1.0" standalone="no"?>
<!DOCTYPE svg PUBLIC "-//W3C//DTD SVG 20010904//EN"
 "http://www.w3.org/TR/2001/REC-SVG-20010904/DTD/svg10.dtd">
<svg version="1.0" xmlns="http://www.w3.org/2000/svg"
 width="1000.000000pt" height="1000.000000pt" viewBox="0 0 1000.000000 1000.000000"
 preserveAspectRatio="xMidYMid meet">
<metadata>
Created by potrace 1.14, written by Peter Selinger 2001-2017
</metadata>
<g transform="translate(0.000000,1000.000000) scale(0.100000,-0.100000)"
fill="#000000" stroke="none">
<path d="M0 5000 l0 -5000 875 0 875 0 40 82 c22 46 40 86 40 89 0 4 8 24 17
45 9 22 17 41 18 44 1 3 4 12 7 20 36 96 49 166 46 245 -3 74 -1 85 14 85 9 0
19 -4 22 -8 3 -5 43 -12 88 -15 46 -4 94 -10 108 -13 14 -3 52 -8 85 -10 33
-3 70 -7 83 -10 23 -5 23 -5 4 -22 -11 -9 -30 -52 -43 -94 -12 -43 -26 -78
-31 -78 -4 0 -8 -7 -8 -15 0 -9 -10 -35 -21 -58 -12 -23 -22 -44 -22 -47 1
-12 -12 -47 -46 -122 -12 -26 -21 -55 -21 -63 0 -8 -4 -15 -10 -15 -5 0 -10
-9 -10 -20 0 -20 7 -20 764 -20 l765 0 -11 32 c-6 18 -19 45 -30 60 -10 14
-18 31 -18 36 0 5 -13 35 -30 66 -16 31 -28 57 -28 59 3 3 -55 121 -62 127
-10 8 -44 85 -42 93 1 5 -7 26 -19 47 -24 42 -20 70 8 70 10 0 25 9 33 20 8
11 19 20 25 20 20 0 210 194 270 275 17 22 32 42 35 45 15 13 78 119 90 150 8
19 27 55 42 79 15 25 28 50 28 57 0 6 8 30 19 53 l18 42 -1 -255 c-1 -192 2
-258 12 -267 6 -7 12 -32 12 -55 0 -24 5 -46 10 -49 6 -3 10 -17 10 -31 0 -13
5 -24 10 -24 6 0 10 -9 10 -20 0 -11 4 -20 8 -20 4 0 15 -13 24 -28 18 -30
128 -148 128 -137 0 3 13 -3 29 -14 16 -12 34 -21 40 -21 6 0 11 -4 11 -8 0
-5 19 -15 43 -22 23 -7 53 -16 67 -21 14 -4 41 -11 60 -15 19 -3 39 -9 44 -12
9 -5 -31 -31 -51 -32 -9 0 -154 -92 -218 -138 -6 -4 -30 -17 -54 -30 -24 -12
-57 -29 -75 -38 -87 -46 -135 -70 -161 -81 -11 -4 373 -9 854 -11 481 -1 876
0 879 3 3 3 -1 53 -9 112 -12 94 -17 109 -37 119 -29 14 -18 24 29 24 21 0 64
7 96 15 32 9 98 20 148 26 49 5 94 14 99 19 6 6 29 10 53 10 24 0 51 4 61 9
59 30 135 37 232 23 l45 -7 8 -70 c4 -38 11 -113 15 -166 5 -52 12 -101 16
-107 5 -9 436 -12 1797 -12 l1789 0 0 5000 0 5000 -5000 0 -5000 0 0 -5000z
m1960 4665 c-19 -19 -38 -35 -43 -35 -9 0 63 69 72 70 3 0 -10 -16 -29 -35z
m-110 -102 c-14 -16 -54 -59 -91 -98 -65 -68 -102 -115 -239 -302 -70 -96 -94
-124 -65 -78 19 31 62 91 178 248 37 51 67 98 67 105 0 7 4 11 8 8 5 -3 42 29
82 69 75 75 104 99 60 48z m6730 -82 c66 -24 54 -27 -18 -6 -29 9 -125 20
-215 25 l-162 9 170 -5 c133 -3 182 -8 225 -23z m-465 9 c-33 -5 -76 -13 -95
-19 -56 -18 -60 -11 -5 9 28 10 75 18 105 18 l55 -1 -60 -7z m610 -49 c64 -20
166 -69 200 -96 11 -8 -23 5 -75 29 -52 25 -120 54 -150 65 -70 25 -54 27 25
2z m271 -142 c3 -6 -5 -3 -20 6 -14 10 -26 19 -26 22 0 7 39 -17 46 -28z
m-7575 -282 c-10 -9 -11 -8 -5 6 3 10 9 15 12 12 3 -3 0 -11 -7 -18z m8000
-114 c13 -16 12 -17 -3 -4 -10 7 -18 15 -18 17 0 8 8 3 21 -13z m129 -203 c6
-11 8 -20 6 -20 -3 0 -10 9 -16 20 -6 11 -8 20 -6 20 3 0 10 -9 16 -20z m89
-200 c18 -44 30 -86 28 -93 -4 -8 -6 -7 -6 3 -1 8 -15 48 -31 89 -31 75 -33
81 -26 81 2 0 18 -36 35 -80z m-7391 -137 c-2 -14 -8 -28 -14 -30 -7 -2 -9 8
-6 27 5 37 25 40 20 3z m7441 -13 c0 -10 -3 -8 -9 5 -12 27 -12 43 0 25 5 -8
9 -22 9 -30z m51 -229 c0 -45 -6 -37 -13 18 -4 29 -2 40 4 30 5 -7 9 -29 9
-48z m23 -146 c4 -23 3 -34 -2 -25 -5 8 -11 38 -14 65 -7 56 6 25 16 -40z m14
-497 c-1 -84 -3 -16 -3 152 0 168 2 236 3 153 2 -84 2 -222 0 -305z m-7257 7
c-35 -37 -205 -153 -295 -201 -152 -81 -424 -179 -527 -191 -66 -7 -59 0 34
41 66 29 447 230 558 295 73 43 172 80 214 80 l39 1 -23 -25z m-1280 -35 c-8
-5 -49 -9 -90 -8 l-75 1 65 7 c109 11 117 11 100 0z m407 -78 c-19 -18 -22 -7
-10 38 l6 24 10 -22 c8 -18 7 -27 -6 -40z m8130 -134 c-3 -8 -6 -5 -6 6 -1 11
2 17 5 13 3 -3 4 -12 1 -19z m0 -60 c-3 -7 -5 -2 -5 12 0 14 2 19 5 13 2 -7 2
-19 0 -25z m-6318 -77 c-10 -41 -21 -77 -24 -79 -15 -15 -11 11 12 81 14 43
26 77 28 75 2 -2 -6 -36 -16 -77z m6297 -36 c-9 -21 -16 -61 -17 -89 0 -28 -4
-60 -9 -71 -17 -44 4 145 28 235 6 24 6 24 10 -6 2 -18 -4 -49 -12 -69z
m-6366 -309 c8 -3 4 -4 -10 -3 -16 1 -26 9 -28 22 -3 18 -3 18 10 4 7 -9 20
-19 28 -23z m2529 6 c-2 -15 0 -33 5 -40 10 -17 -1 -29 -15 -15 -6 6 -8 25 -4
47 8 42 18 48 14 8z m-2100 -135 c35 -108 83 -274 118 -407 13 -52 40 -149 59
-215 l35 -119 -7 -169 c-7 -168 -7 -169 -25 -146 -18 23 -93 171 -118 232 -6
15 -22 71 -35 125 -66 261 -93 436 -103 671 l-6 154 26 -18 c19 -12 33 -40 56
-108z m5868 36 c-3 -10 -5 -4 -5 12 0 17 2 24 5 18 2 -7 2 -21 0 -30z m-6628
-25 c10 -24 32 -85 50 -136 28 -82 31 -103 29 -185 l-3 -92 -33 70 c-60 127
-84 193 -106 290 -21 93 -21 95 14 95 27 0 33 -6 49 -42z m-1628 -5 c9 -22 6
-47 -11 -118 -36 -148 -51 -326 -48 -575 2 -124 2 -316 0 -426 l-3 -201 -26
-12 c-14 -6 -27 -10 -28 -9 -9 11 -27 52 -38 89 -56 173 -54 665 3 814 13 34
46 195 55 265 8 67 35 170 48 188 16 20 37 14 48 -15z m1427 -32 c-1 -33 0
-57 4 -55 7 5 20 -36 39 -126 6 -30 15 -59 20 -64 5 -6 9 -16 9 -24 0 -20 75
-177 113 -237 18 -27 59 -86 92 -131 33 -45 77 -105 98 -134 l38 -52 -38 7
c-21 5 -128 9 -238 11 -277 3 -374 7 -346 12 13 2 35 15 48 28 16 16 35 24 58
24 28 0 35 4 35 20 0 17 7 20 45 20 38 0 45 3 45 20 0 11 5 20 10 20 6 0 10
-9 10 -20 0 -13 7 -20 20 -20 13 0 20 7 20 19 0 11 6 22 13 24 9 4 8 8 -3 17
-11 9 -12 13 -2 17 14 6 16 33 2 33 -5 0 -10 9 -10 20 0 22 26 28 33 8 2 -7 8
-10 12 -6 6 6 1 16 -32 53 -15 16 -17 45 -3 45 6 0 10 -5 10 -11 0 -5 5 -7 11
-4 6 4 8 14 5 22 -3 8 -1 11 4 8 6 -3 10 -1 10 4 0 6 -5 11 -11 11 -6 0 -8 7
-5 16 4 10 2 13 -6 8 -7 -5 -9 -2 -5 9 4 12 2 14 -10 10 -13 -5 -15 -1 -10 23
3 16 0 40 -7 52 -12 22 -14 23 -29 8 -22 -22 -47 -20 -47 4 0 22 16 27 22 8 4
-10 9 -8 21 3 9 9 13 20 10 23 -4 4 -8 16 -10 27 -2 11 -8 29 -13 40 -11 20
-30 26 -30 9 0 -5 -7 -10 -15 -10 -8 0 -15 5 -15 10 0 6 -4 10 -10 10 -5 0
-10 -9 -10 -20 0 -11 -4 -20 -10 -20 -5 0 -10 5 -10 10 0 6 -7 10 -15 10 -8 0
-15 -9 -15 -20 0 -13 -7 -20 -20 -20 -13 0 -20 7 -20 20 0 13 7 20 20 20 11 0
20 7 20 15 0 11 13 15 53 15 53 0 54 0 54 30 0 17 -4 30 -9 30 -4 0 -8 -4 -8
-10 0 -5 -18 -10 -40 -10 -22 0 -40 5 -40 10 0 6 5 10 10 10 6 0 10 5 10 10 0
6 -25 10 -55 10 -30 0 -55 5 -55 10 0 6 -5 10 -11 10 -16 0 -39 -26 -39 -44 0
-9 -4 -16 -10 -16 -5 0 -10 -9 -10 -20 0 -11 -4 -20 -10 -20 -5 0 -10 -7 -10
-15 0 -8 -4 -15 -10 -15 -5 0 -10 16 -10 35 0 24 -5 35 -15 35 -9 0 -15 -9
-15 -23 0 -12 -9 -28 -20 -35 -12 -7 -20 -8 -20 -2 0 19 -17 10 -28 -15 -7
-15 -8 -27 -2 -30 13 -8 13 -45 0 -45 -5 0 -10 10 -10 22 0 21 0 21 -15 2 -8
-10 -15 -29 -15 -42 0 -13 -4 -20 -10 -17 -5 3 -10 -1 -10 -10 0 -15 -19 -55
-31 -65 -15 -12 -49 -92 -44 -100 3 -6 1 -10 -4 -10 -6 0 -11 -13 -11 -29 0
-16 -6 -31 -14 -34 -25 -10 -11 33 58 173 25 53 46 99 46 103 0 4 12 26 27 50
15 23 36 57 46 76 32 59 90 130 101 124 6 -4 6 -8 -2 -11 -7 -2 -10 -8 -6 -13
3 -5 0 -9 -5 -9 -6 0 -11 -4 -11 -10 0 -5 6 -10 14 -10 17 0 27 45 13 59 -7 7
-4 17 9 32 29 32 68 49 116 50 24 0 61 4 83 8 69 15 67 17 63 -48z m556 30 c3
-5 11 -53 17 -107 13 -111 35 -186 85 -288 19 -39 34 -75 34 -82 0 -6 7 -17
16 -24 26 -22 64 -95 84 -162 27 -92 71 -210 86 -233 26 -37 9 -74 -22 -46
-14 13 -183 71 -208 71 -23 0 -166 156 -193 211 -19 37 -43 195 -42 279 0 36
6 106 15 155 8 50 17 123 21 163 l6 72 48 0 c26 0 50 -4 53 -9z m2504 -41 c3
-23 8 -39 34 -96 6 -12 11 -33 11 -47 1 -14 5 -23 8 -21 6 3 63 -102 64 -118
0 -3 3 -10 8 -14 4 -4 7 -15 7 -25 0 -9 3 -19 8 -21 12 -5 56 -98 49 -104 -11
-12 -36 17 -32 36 2 11 0 22 -6 25 -5 4 -9 -6 -9 -20 0 -15 -4 -24 -10 -20
-14 9 -12 52 3 58 8 3 1 16 -20 37 -36 35 -40 45 -20 54 10 5 10 7 0 12 -7 3
-13 13 -14 22 0 14 -2 13 -9 -3 -5 -11 -9 -14 -9 -7 -1 6 -11 12 -22 12 -12 0
-30 10 -40 22 -11 11 -22 18 -27 13 -4 -4 -1 -10 6 -12 21 -8 13 -23 -13 -23
-16 0 -25 -6 -25 -16 0 -9 -9 -18 -20 -21 -11 -3 -20 -14 -20 -23 0 -10 -9
-22 -20 -25 -16 -5 -20 -15 -20 -56 0 -41 -3 -49 -18 -49 -10 0 -24 6 -31 13
-11 10 -14 10 -18 0 -3 -7 -11 -13 -19 -13 -8 0 -14 -2 -14 -4 0 -2 -3 -13 -6
-23 -6 -15 -4 -16 7 -5 20 18 29 15 29 -13 0 -29 5 -31 27 -9 14 13 14 17 2
26 -11 8 -10 9 4 4 10 -3 32 -6 48 -6 16 0 29 -4 29 -10 0 -5 -9 -10 -20 -10
-11 0 -20 -4 -20 -10 0 -5 9 -10 20 -10 11 0 20 -4 20 -10 0 -5 16 -10 35 -10
19 0 35 -4 35 -10 0 -5 22 -10 49 -10 57 0 61 -6 61 -91 0 -52 2 -59 20 -59
11 0 20 -4 20 -10 0 -5 9 -10 20 -10 15 0 20 -7 20 -25 0 -16 6 -25 15 -25 8
0 15 -9 15 -20 0 -13 7 -20 20 -20 18 0 20 -7 20 -55 0 -52 1 -55 25 -55 23 0
25 -3 19 -27 -8 -34 -15 -42 -21 -25 -9 23 -23 12 -23 -18 0 -26 -3 -30 -29
-30 -35 0 -60 -24 -35 -34 25 -9 64 -7 64 4 0 6 9 10 20 10 11 0 20 -7 20 -15
0 -8 7 -15 15 -15 8 0 15 -5 15 -11 0 -5 4 -8 9 -5 5 3 14 -1 21 -9 7 -8 23
-15 36 -15 13 0 24 -4 24 -10 0 -5 14 -10 30 -10 17 0 30 -5 30 -11 0 -5 5 -7
10 -4 6 3 10 1 10 -5 0 -6 5 -8 12 -4 6 4 8 3 5 -3 -4 -6 2 -13 14 -16 16 -4
18 -3 8 9 -10 12 -1 14 55 14 52 0 66 -3 66 -15 0 -17 2 -18 24 -9 10 4 16 18
16 35 0 16 4 29 9 29 11 0 21 -25 21 -50 0 -10 9 -20 20 -23 16 -4 18 -2 10
13 -6 10 -10 28 -10 39 0 12 -5 21 -11 21 -11 0 -44 29 -38 33 2 1 14 7 25 14
19 10 23 9 28 -10 3 -12 6 -34 6 -49 0 -15 5 -30 10 -33 6 -3 10 -22 10 -41 0
-19 5 -34 10 -34 6 0 10 -11 10 -25 0 -28 17 -72 39 -98 27 -33 3 -28 -34 8
-21 19 -44 35 -51 35 -8 0 -14 5 -14 10 0 6 -6 10 -13 10 -7 0 -22 8 -33 18
-16 14 -206 112 -279 143 -43 18 -172 59 -187 59 -8 0 -37 8 -64 19 -120 46
-196 55 -469 55 -143 1 -275 -3 -293 -8 l-33 -9 29 59 c16 33 40 85 53 118 18
44 35 68 68 93 102 78 211 233 336 482 24 46 45 79 47 75 3 -5 3 -3 1 5 -4 15
42 142 66 179 19 31 55 26 59 -8z m3749 -17 c-3 -10 -5 -2 -5 17 0 19 2 27 5
18 2 -10 2 -26 0 -35z m-20 -65 c-3 -8 -6 -5 -6 6 -1 11 2 17 5 13 3 -3 4 -12
1 -19z m-6927 -58 c0 -5 -16 -10 -35 -10 -19 0 -35 5 -35 10 0 6 16 10 35 10
19 0 35 -4 35 -10z m6907 -27 c-3 -10 -5 -4 -5 12 0 17 2 24 5 18 2 -7 2 -21
0 -30z m-50 -155 c-3 -8 -6 -5 -6 6 -1 11 2 17 5 13 3 -3 4 -12 1 -19z m-14
-40 c-7 -32 -46 -119 -50 -114 -3 2 5 23 16 47 12 23 21 53 21 66 0 13 4 23 9
23 5 0 7 -10 4 -22z m-6643 -18 c0 -5 -4 -10 -10 -10 -5 0 -10 5 -10 10 0 6 5
10 10 10 6 0 10 -4 10 -10z m3238 -138 c14 -32 34 -66 44 -76 10 -11 18 -25
18 -32 0 -7 3 -14 8 -16 4 -1 24 -30 46 -62 21 -32 52 -75 70 -95 63 -73 166
-169 166 -155 0 3 12 -4 26 -15 15 -12 37 -21 49 -21 12 0 29 -8 38 -18 15
-17 15 -18 -8 -20 -26 -2 -35 13 -13 20 14 5 -70 22 -87 19 -5 -2 -7 1 -3 4 8
8 -65 65 -82 65 -5 0 -17 11 -26 25 -9 14 -19 23 -22 21 -6 -7 -32 20 -32 34
0 6 -7 19 -16 27 -13 14 -17 14 -25 2 -13 -20 -11 -29 6 -29 8 0 15 -9 15 -20
0 -16 -7 -20 -35 -20 -34 0 -35 1 -35 39 0 33 4 40 22 43 12 2 23 8 25 14 2 7
-6 10 -22 7 -18 -4 -25 -1 -25 10 0 11 6 13 22 9 l22 -5 -23 31 c-12 18 -27
30 -32 27 -5 -4 -9 6 -9 22 -1 25 -2 26 -14 11 -8 -11 -26 -18 -45 -18 -24 0
-31 4 -31 20 0 13 7 20 20 20 11 0 20 -4 20 -10 0 -5 7 -10 16 -10 13 0 15 6
9 28 -8 32 -33 62 -52 62 -7 0 -13 9 -13 20 0 11 -6 20 -12 20 -9 0 -9 3 1 9
11 7 10 12 -8 22 -11 8 -21 19 -21 26 0 7 -6 13 -12 13 -9 0 -8 3 2 9 20 14
28 6 58 -57z m3343 5 c-10 -9 -11 -8 -5 6 3 10 9 15 12 12 3 -3 0 -11 -7 -18z
m-7671 -203 c11 -53 23 -101 26 -106 3 -5 22 6 43 25 50 45 130 99 141 95 4
-2 -14 -32 -41 -68 -27 -36 -56 -78 -64 -95 -31 -61 -64 -117 -78 -133 -8 -9
-18 -27 -21 -39 -4 -13 -11 -23 -16 -23 -5 0 -24 30 -42 67 -30 61 -33 77 -37
177 -3 110 5 176 37 271 l16 50 7 -62 c4 -34 17 -106 29 -159z m2479 102 c20
-21 74 -91 120 -155 148 -204 290 -357 404 -434 l37 -25 -44 -39 c-61 -54 -93
-70 -114 -57 -39 25 -209 234 -299 369 -79 118 -233 417 -233 451 0 9 93 -70
129 -110z m-1966 20 c4 -9 -4 -17 -21 -21 -15 -4 -21 -10 -14 -12 6 -3 12 -14
12 -25 0 -17 -3 -18 -15 -8 -12 10 -18 10 -29 1 -13 -11 -32 -66 -29 -82 1 -3
-6 -10 -16 -16 -18 -11 -18 -10 0 27 11 22 19 46 19 54 0 8 16 29 35 47 18 18
32 36 29 41 -3 4 1 8 9 8 8 0 17 -6 20 -14z m597 -1 c0 -11 -11 -15 -40 -15
-35 0 -39 2 -28 15 18 19 68 20 68 0z m6533 0 c-3 -9 -8 -14 -10 -11 -3 3 -2
9 2 15 9 16 15 13 8 -4z m-20 -40 c-3 -9 -8 -14 -10 -11 -3 3 -2 9 2 15 9 16
15 13 8 -4z m-23 -44 c-5 -11 -15 -23 -21 -27 -6 -3 -3 5 6 20 20 30 30 35 15
7z m-7076 -23 c5 -10 7 -10 12 0 4 8 32 12 90 12 83 0 84 0 84 -25 0 -16 6
-25 16 -25 9 0 14 -5 12 -12 -3 -8 -23 -11 -56 -9 -32 1 -52 -2 -52 -8 0 -6
22 -11 53 -12 l52 -1 -40 -8 c-53 -10 -280 -10 -240 0 17 4 59 8 94 9 55 1 62
3 57 18 -4 9 -1 20 6 25 8 5 2 8 -19 8 -17 0 -34 6 -37 13 -5 10 -7 10 -12 0
-3 -7 -17 -13 -30 -13 -17 0 -24 6 -24 20 0 22 25 27 34 8z m216 -18 c0 -5 -4
-10 -10 -10 -5 0 -10 5 -10 10 0 6 5 10 10 10 6 0 10 -4 10 -10z m1595 -42 c4
-17 18 -50 31 -72 13 -23 44 -79 68 -126 41 -79 85 -143 194 -284 142 -185
296 -298 436 -321 46 -8 32 -25 -21 -25 -31 0 -33 -2 -33 -35 0 -24 5 -35 15
-35 8 0 15 -9 15 -20 0 -17 -7 -20 -45 -20 -42 0 -61 13 -33 22 9 3 8 10 -5
22 -10 10 -21 15 -25 12 -3 -4 0 -11 7 -16 22 -13 -11 -40 -48 -40 -31 0 -31
1 -31 51 0 41 -5 56 -22 72 -16 13 -19 21 -10 24 14 5 16 43 2 43 -5 0 -10 9
-10 20 0 11 -5 20 -11 20 -5 0 -8 4 -5 9 7 11 -57 61 -78 61 -9 0 -16 5 -16
11 0 19 -61 69 -84 69 -40 0 -96 13 -96 21 0 5 9 9 20 9 11 0 20 4 20 8 0 4
-9 14 -20 22 -14 10 -20 26 -20 53 0 58 -20 71 -107 68 -22 -1 -33 -6 -33 -16
0 -8 -9 -15 -20 -15 -17 0 -20 7 -20 45 0 25 5 45 10 45 6 0 10 -4 10 -10 0
-5 5 -10 10 -10 6 0 10 16 10 35 0 24 5 35 15 35 8 0 15 9 15 20 0 11 -4 20
-10 20 -5 0 -10 18 -10 40 0 36 -2 40 -25 40 -28 0 -34 17 -8 22 16 3 16 4 0
20 -9 9 -17 23 -17 31 0 8 -7 20 -15 27 -14 11 -16 9 -15 -21 1 -19 -3 -85
-10 -148 -6 -63 -9 -124 -6 -136 4 -15 1 -25 -10 -29 -12 -5 -13 -10 -4 -27 7
-11 9 -23 7 -26 -13 -12 -26 37 -18 68 5 19 15 118 22 221 12 181 20 213 34
146z m-1485 18 c0 -8 -13 -16 -30 -18 -35 -5 -35 -5 -14 16 19 20 44 21 44 2z
m3560 -5 c0 -11 5 -23 10 -26 17 -10 11 -25 -10 -25 -16 0 -20 7 -20 35 0 19
5 35 10 35 6 0 10 -9 10 -19z m3104 -76 c-20 -30 -39 -55 -41 -55 -5 0 3 14
39 68 16 23 31 42 34 42 2 0 -12 -25 -32 -55z m-7132 23 c-7 -7 -12 -8 -12 -2
0 14 12 26 19 19 2 -3 -1 -11 -7 -17z m7031 -219 c-10 -17 -26 -38 -37 -47
-10 -9 -4 4 15 31 37 53 49 62 22 16z m-6631 -7 l67 4 3 -101 c3 -55 12 -126
21 -158 9 -32 17 -66 17 -76 0 -43 67 -234 92 -261 9 -10 20 -31 24 -47 4 -15
20 -40 36 -55 15 -14 28 -30 28 -35 0 -22 154 -158 169 -149 5 4 12 2 16 -4 3
-5 19 -10 35 -10 16 0 32 -4 35 -10 12 -19 120 -10 195 18 8 3 17 6 20 7 51
13 184 134 235 215 86 135 131 250 144 370 6 60 5 76 -9 92 -13 17 -15 31 -8
80 4 33 11 64 14 70 16 25 138 -29 223 -99 31 -26 58 -49 60 -50 3 -2 -1 -9
-8 -16 -9 -9 -14 -9 -21 3 -5 8 -12 11 -17 7 -4 -5 -3 -11 3 -15 16 -10 27
-62 13 -62 -20 0 -39 29 -40 62 -1 18 -8 -20 -15 -86 -8 -65 -25 -154 -39
-198 -14 -43 -25 -87 -25 -97 0 -33 -59 -137 -115 -201 -45 -52 -53 -66 -40
-72 8 -5 15 -20 15 -33 0 -19 -5 -25 -21 -25 -15 0 -19 5 -15 15 7 19 -3 19
-23 0 -100 -92 -174 -142 -239 -160 -32 -10 -63 -22 -69 -27 -10 -8 -13 -6
-13 6 0 11 -9 16 -30 16 -16 0 -44 8 -62 18 -61 33 -187 62 -271 62 -35 0 -67
4 -73 8 -5 5 -29 14 -54 21 -25 7 -54 17 -65 21 -11 5 -37 11 -58 15 -21 3
-53 15 -70 26 -18 10 -40 19 -49 19 -10 0 -18 4 -18 8 0 5 -16 14 -35 22 -19
8 -35 17 -35 22 0 4 -9 8 -20 8 -11 0 -20 5 -20 10 0 6 -6 10 -12 10 -7 0 -27
13 -44 28 -35 30 -40 51 -53 197 -5 55 -14 138 -20 185 -7 56 -8 111 -1 160 5
41 14 115 20 164 6 49 13 92 15 96 3 4 35 1 72 -7 38 -8 98 -13 135 -11z
m-418 -37 c-1 -59 -8 -106 -17 -122 -4 -6 -10 -46 -14 -87 -3 -42 -10 -79 -14
-82 -5 -3 -9 -14 -9 -25 0 -10 -4 -19 -9 -19 -6 0 -12 -15 -14 -32 -8 -61 3
126 13 217 5 50 13 116 16 148 5 53 8 58 27 55 19 -3 22 -9 21 -53z m3312 -97
c-51 -171 -56 -209 -56 -394 0 -196 7 -246 58 -389 55 -156 121 -231 254 -286
l73 -31 135 11 c144 11 255 41 315 86 34 26 120 109 150 146 26 31 104 161
106 177 0 4 6 21 13 37 7 17 19 48 26 70 7 22 16 48 21 57 5 10 9 27 9 37 0
11 5 23 10 26 6 3 10 30 10 58 0 70 9 82 40 54 26 -24 103 -71 156 -97 28 -14
50 -31 152 -121 33 -28 33 -31 28 -86 -11 -103 -17 -127 -56 -208 -21 -44 -41
-90 -45 -102 -3 -13 -11 -23 -16 -23 -5 0 -9 -6 -9 -12 0 -7 -20 -40 -45 -73
-25 -33 -45 -62 -45 -66 0 -3 -13 -20 -30 -37 -34 -36 -36 -47 -16 -68 18 -17
99 -19 125 -2 15 9 29 9 61 -1 33 -10 45 -10 58 0 25 19 -36 -50 -88 -99 -25
-23 -66 -59 -92 -80 -26 -20 -47 -40 -48 -44 0 -3 13 -10 28 -16 37 -13 112
-4 135 16 9 8 17 12 17 7 0 -4 7 -1 17 6 15 13 15 12 4 -9 -6 -12 -21 -28 -31
-35 -11 -6 -20 -17 -20 -23 0 -7 -32 -45 -71 -86 -39 -40 -64 -61 -56 -47 14
23 13 26 -1 36 -12 7 -16 23 -14 57 1 27 -2 44 -8 41 -5 -3 -7 -12 -4 -20 3
-7 1 -22 -5 -32 -10 -16 -11 -15 -6 7 3 15 -2 33 -13 45 -40 48 -184 107 -322
134 -224 44 -281 54 -325 58 -27 3 -54 8 -60 12 -5 5 -30 13 -55 19 -25 6 -74
18 -110 27 -36 10 -89 21 -119 26 -30 6 -114 30 -188 55 -74 24 -138 42 -143
39 -16 -10 3 -45 44 -82 22 -21 40 -41 38 -46 -1 -5 2 -6 8 -2 5 3 38 -9 72
-26 91 -47 96 -49 115 -49 10 0 43 -12 73 -26 30 -14 71 -29 90 -34 34 -8 33
-9 -15 -8 -27 0 -68 -3 -90 -7 -31 -5 -59 -1 -118 19 -43 14 -89 26 -103 26
-29 0 -67 31 -46 38 28 9 9 22 -32 22 -26 0 -46 5 -49 13 -4 9 -8 8 -16 -3 -5
-8 -13 -11 -18 -7 -4 5 -1 12 7 17 18 11 13 16 -30 24 -22 4 -30 3 -21 -3 11
-7 6 -16 -22 -45 -20 -20 -41 -36 -47 -36 -5 0 -10 -4 -10 -10 0 -19 22 -10
51 21 26 27 30 29 44 16 20 -21 19 -27 -5 -27 -13 0 -20 -7 -20 -20 0 -13 -7
-20 -20 -20 -20 0 -25 -13 -22 -55 2 -16 0 -17 -7 -5 -6 8 -13 11 -18 7 -4 -5
-1 -12 7 -18 13 -8 13 -10 0 -19 -13 -9 -13 -11 0 -20 13 -9 13 -11 0 -19 -8
-6 -11 -13 -7 -18 10 -10 28 18 22 35 -10 26 7 42 46 42 33 0 39 3 39 21 0 19
1 19 17 4 14 -14 14 -18 2 -27 -11 -7 -11 -11 -1 -15 7 -3 12 -23 12 -48 0
-25 -5 -46 -12 -49 -10 -5 -10 -7 0 -12 18 -8 16 -64 -3 -64 -11 0 -15 11 -15
40 0 43 -4 47 -26 26 -17 -18 -19 -63 -2 -68 9 -3 8 -9 -5 -22 -22 -22 -22
-20 8 -50 32 -32 31 -36 -5 -36 -27 0 -30 -3 -30 -30 0 -16 4 -30 10 -30 9 0
60 -47 60 -55 0 -17 -16 -35 -31 -35 -12 0 -19 -7 -19 -20 0 -17 7 -20 44 -20
26 0 47 5 50 13 5 10 7 10 12 0 9 -19 191 -18 210 1 22 23 18 66 -6 66 -13 0
-20 -7 -20 -20 0 -11 -4 -20 -10 -20 -5 0 -10 4 -10 9 0 5 -7 16 -15 25 -14
14 -14 17 1 35 13 14 25 18 46 14 21 -4 28 -2 28 11 0 11 -9 16 -30 16 -34 0
-37 5 -16 26 10 9 37 14 82 14 56 0 70 3 85 22 23 26 24 38 4 38 -8 0 -15 -4
-15 -10 0 -5 -13 -10 -30 -10 -32 0 -40 14 -14 24 9 3 31 6 50 6 23 0 34 5 34
14 0 8 4 18 10 21 7 4 7 -2 0 -19 -7 -19 -6 -24 4 -20 8 3 16 -3 18 -14 3 -11
19 -25 37 -33 17 -8 31 -17 31 -20 0 -3 26 -9 57 -13 31 -4 61 -10 67 -15 6
-5 56 -12 111 -16 97 -7 101 -6 129 18 20 17 27 31 22 42 -4 11 0 22 11 31 16
11 13 13 -24 12 -22 0 -46 3 -53 7 -7 4 -62 11 -124 16 -79 6 -131 15 -180 34
-54 20 -71 23 -83 14 -11 -10 -17 -9 -31 4 -10 11 -12 17 -4 17 7 0 12 -4 12
-10 0 -5 4 -10 8 -10 5 0 8 10 7 23 -2 12 -8 21 -14 20 -6 -2 -11 1 -11 5 0 9
-91 48 -102 45 -5 -2 -8 1 -8 7 0 5 -20 18 -45 29 -25 11 -45 22 -45 25 0 7
53 -16 121 -52 83 -43 196 -83 264 -93 33 -5 103 -21 155 -35 52 -14 131 -30
175 -34 44 -5 109 -13 145 -20 52 -9 172 -24 235 -30 6 0 -6 -8 -25 -17 -19
-10 -37 -20 -40 -23 -18 -21 -73 -51 -86 -46 -9 3 -12 2 -9 -5 4 -6 -2 -13
-14 -16 -12 -3 -21 -9 -21 -13 0 -8 -38 -23 -52 -21 -5 1 -8 -3 -8 -9 0 -5
-10 -10 -22 -10 -23 0 -90 -21 -98 -31 -7 -8 -100 -28 -125 -27 -43 3 -76 -2
-70 -11 3 -6 18 -6 37 0 17 5 34 7 36 5 6 -6 -68 -26 -96 -26 -13 0 -21 4 -18
8 3 5 -4 15 -15 22 -11 8 -19 26 -19 42 0 29 -14 38 -24 16 -5 -10 -7 -10 -12
0 -3 6 -12 12 -20 12 -8 0 -14 5 -14 10 0 6 -9 10 -19 10 -11 0 -22 6 -25 13
-5 10 -7 10 -12 0 -9 -20 -24 -15 -24 7 0 11 -7 20 -15 20 -8 0 -15 -9 -15
-20 0 -13 -7 -20 -20 -20 -13 0 -20 -7 -20 -19 0 -11 -6 -22 -12 -25 -10 -5
-10 -7 0 -12 21 -10 13 -24 -14 -24 -21 0 -24 4 -19 20 5 14 2 20 -9 20 -11 0
-16 -10 -16 -34 0 -31 -2 -33 -32 -33 -85 0 -118 -4 -118 -13 0 -5 9 -10 20
-10 11 0 20 -4 20 -10 0 -5 -16 -10 -35 -10 -28 0 -35 -4 -35 -20 0 -13 -7
-20 -20 -20 -13 0 -20 -7 -20 -20 0 -17 -7 -20 -47 -21 -27 0 -42 -3 -35 -6
19 -8 14 -23 -8 -23 -11 0 -20 6 -20 13 0 7 -9 19 -20 27 -12 8 -20 26 -20 42
0 15 -4 28 -9 28 -5 0 -13 9 -16 20 -5 16 -15 20 -50 20 -25 0 -50 6 -59 15
-8 8 -22 15 -30 15 -12 0 -16 10 -16 40 0 33 -3 40 -20 40 -13 0 -20 7 -20 20
0 22 16 27 22 8 3 -9 9 -8 21 4 9 9 22 18 29 21 7 2 9 8 5 13 -4 5 -12 2 -18
-6 -8 -13 -10 -13 -18 0 -6 8 -13 11 -18 7 -4 -5 -1 -12 7 -17 8 -6 11 -10 5
-10 -5 0 -17 4 -25 10 -12 7 -10 12 9 30 14 11 21 23 17 27 -4 4 -11 1 -16 -7
-15 -25 -21 -6 -22 74 0 71 9 108 19 79 9 -24 23 -13 23 17 0 30 -14 41 -23
18 -11 -32 -18 9 -20 115 -2 111 -2 114 -20 93 -15 -17 -20 -18 -28 -6 -8 13
-10 13 -18 1 -8 -12 -12 -12 -26 3 -10 9 -14 20 -11 24 4 3 11 0 17 -8 8 -13
10 -13 19 0 9 13 11 13 19 0 8 -12 13 -11 29 7 18 22 19 22 32 2 20 -27 30
-24 30 11 0 27 3 30 29 30 21 0 32 6 36 20 3 11 11 20 16 20 5 0 9 5 9 11 0
14 -25 39 -39 39 -6 0 -11 5 -11 10 0 6 5 10 10 10 6 0 10 9 10 20 0 11 11 30
25 42 30 26 32 63 5 80 -13 9 -20 24 -20 45 0 23 -5 33 -15 33 -11 0 -15 11
-15 39 0 22 -5 41 -12 43 -8 3 -3 14 14 31 14 14 29 23 32 20 3 -4 6 1 6 10 0
15 -3 15 -20 5 -11 -7 -20 -16 -20 -20 0 -5 -9 -8 -20 -8 -15 0 -20 7 -20 25
0 14 5 25 10 25 6 0 10 14 10 30 0 17 -4 30 -10 30 -20 0 -9 18 13 22 19 4 23
0 25 -20 1 -14 4 -28 7 -30 9 -9 4 71 -7 123 -5 28 -13 151 -17 274 -4 166 -9
225 -18 229 -8 2 -13 -5 -13 -17 0 -12 5 -21 10 -21 14 0 12 -37 -2 -44 -10
-5 -10 -7 0 -12 6 -3 12 -16 12 -29 0 -13 -6 -26 -12 -28 -10 -4 -10 -7 0 -14
13 -10 13 -63 0 -63 -13 0 -9 -125 4 -138 9 -9 9 -12 0 -12 -7 0 -12 -7 -12
-15 0 -8 -4 -15 -10 -15 -5 0 -10 7 -10 15 0 8 -4 15 -10 15 -15 0 -13 100 3
101 10 0 10 2 0 6 -9 3 -13 26 -13 64 0 61 -2 63 -47 59 -13 -1 -23 3 -23 9 0
13 45 25 59 16 7 -4 10 10 9 40 -2 29 -7 45 -15 45 -7 0 -13 9 -13 19 0 16 -7
19 -45 19 -42 0 -45 -1 -40 -21 5 -17 4 -19 -4 -7 -8 12 -13 12 -23 2 -6 -6
-25 -12 -40 -12 -28 0 -28 0 -28 -66 0 -61 -1 -65 -20 -59 -12 4 -20 2 -20 -5
0 -7 9 -14 20 -17 11 -3 20 -9 20 -14 0 -5 7 -9 15 -9 8 0 15 -4 15 -10 0 -5
-6 -10 -14 -10 -8 0 -17 -6 -19 -12 -4 -9 -6 -7 -6 3 -1 9 -30 44 -66 79 -36
34 -65 64 -63 65 2 2 28 13 58 25 69 29 104 54 207 152 47 44 97 82 115 87 18
5 98 10 177 10 l143 1 -6 -22z m3564 12 c-8 -5 -19 -10 -25 -10 -5 0 -3 5 5
10 8 5 20 10 25 10 6 0 3 -5 -5 -10z m-4910 -41 c0 -10 4 -19 9 -19 5 0 11
-13 13 -29 4 -25 2 -27 -12 -18 -27 16 -38 41 -33 70 6 30 23 27 23 -4z m4831
12 c-8 -5 -20 -7 -28 -4 -21 8 -15 13 15 13 20 0 23 -3 13 -9z m-4876 -86 l70
-24 -42 -1 c-24 0 -43 5 -43 10 0 6 -16 10 -35 10 -24 0 -35 5 -35 15 0 19 2
19 85 -10z m5091 -13 c-17 -16 -18 -16 -5 5 7 12 15 20 18 17 3 -2 -3 -12 -13
-22z m-7810 -102 c4 -30 15 -74 25 -98 23 -53 24 -69 4 -52 -8 7 -15 19 -15
26 0 8 -4 14 -8 14 -11 0 -62 103 -62 124 0 10 8 28 18 41 21 29 29 18 38 -55z
m2744 55 c0 -8 -4 -15 -10 -15 -5 0 -10 7 -10 15 0 8 5 15 10 15 6 0 10 -7 10
-15z m-110 -15 c0 -11 -5 -20 -11 -20 -6 0 -8 -9 -4 -20 4 -11 2 -20 -4 -20
-6 0 -11 18 -11 40 0 29 4 40 15 40 8 0 15 -9 15 -20z m-1851 -172 c5 -23 6
-38 0 -38 -5 0 -9 11 -9 24 0 14 -4 27 -10 31 -5 3 -6 13 -3 22 4 9 8 13 9 7
2 -5 7 -26 13 -46z m-1206 21 c37 -17 34 -25 -16 -38 -59 -14 -157 -25 -157
-17 0 9 32 59 45 69 13 10 94 2 128 -14z m1149 -65 c-3 -16 1 -29 9 -35 9 -5
10 -9 2 -9 -12 0 -11 -29 1 -67 4 -14 17 -23 33 -25 25 -3 28 -8 41 -88 16
-97 37 -141 72 -151 19 -5 21 -7 6 -8 -11 -1 -28 7 -38 16 -18 16 -18 16 -12
0 4 -12 1 -17 -10 -17 -9 0 -16 -4 -16 -10 0 -5 -9 -10 -20 -10 -18 0 -20 -7
-20 -75 0 -73 -1 -75 -25 -75 -14 0 -25 5 -25 10 0 6 5 10 10 10 6 0 10 14 10
30 0 28 -2 30 -40 30 -29 0 -40 4 -40 15 0 8 -7 15 -15 15 -8 0 -15 -7 -15
-15 0 -8 -9 -15 -20 -15 -11 0 -20 7 -20 15 0 20 -59 20 -66 1 -3 -8 -12 -17
-19 -20 -11 -4 -10 6 2 52 24 92 23 89 34 72 6 -10 7 -5 3 16 -4 19 -1 34 5
38 6 4 11 18 11 31 0 13 5 27 10 30 6 3 10 17 10 30 0 13 4 26 9 29 4 3 11 24
15 46 3 22 15 54 25 71 l19 30 10 -28 c6 -15 20 -38 31 -50 23 -28 47 -31 36
-5 -13 28 -19 156 -8 149 6 -4 8 -18 5 -33z m-1492 18 c0 -14 -57 -42 -86 -42
-34 0 -25 10 29 32 48 19 57 21 57 10z m1581 -52 c5 0 9 -9 9 -21 0 -11 -5
-17 -10 -14 -6 4 -8 10 -5 15 3 5 1 11 -5 15 -5 3 -9 14 -9 23 1 15 2 15 6 0
2 -10 9 -18 14 -18z m6960 3 c13 -16 12 -17 -3 -4 -10 7 -18 15 -18 17 0 8 8
3 21 -13z m-6929 -68 c3 -13 1 -22 -3 -19 -9 5 -13 44 -5 44 2 0 6 -11 8 -25z
m7048 -62 c0 -8 -9 0 -50 45 l-45 47 48 -45 c26 -24 47 -45 47 -47z m111 -110
c13 -16 12 -17 -3 -4 -10 7 -18 15 -18 17 0 8 8 3 21 -13z m-5641 -43 c0 -5
-5 -10 -11 -10 -5 0 -7 5 -4 10 3 6 8 10 11 10 2 0 4 -4 4 -10z m5721 -27 c13
-16 12 -17 -3 -4 -10 7 -18 15 -18 17 0 8 8 3 21 -13z m-7201 -71 c0 -4 10
-13 23 -21 20 -13 21 -13 8 3 -8 9 -11 19 -8 22 3 3 12 -7 20 -23 8 -15 34
-39 58 -52 27 -15 38 -26 29 -29 -8 -3 -16 0 -18 7 -2 6 -10 11 -18 11 -8 0
-14 5 -14 11 0 5 -4 8 -10 4 -5 -3 -6 -13 -3 -22 5 -12 2 -12 -15 3 -12 10
-22 24 -22 32 0 9 -5 10 -19 2 -28 -15 -51 -12 -51 5 0 8 9 15 20 15 11 0 20
5 20 10 0 6 -10 10 -22 10 -19 0 -20 2 -8 10 18 12 30 13 30 2z m-1373 -61
c52 -69 273 -67 478 5 46 16 74 18 59 6 -15 -14 -174 -78 -239 -97 -211 -61
-415 -85 -415 -50 0 27 76 165 91 165 3 0 15 -13 26 -29z m1560 23 c-3 -3 -12
-4 -19 -1 -8 3 -5 6 6 6 11 1 17 -2 13 -5z m58 -24 c3 -5 -4 -6 -15 -3 -11 3
-22 9 -25 13 -3 5 4 6 15 3 11 -3 22 -9 25 -13z m85 -29 c13 -13 13 -14 -2 -2
-9 7 -22 11 -30 10 -25 -3 -35 1 -35 15 0 11 6 12 26 3 14 -6 33 -17 41 -26z
m-304 15 c19 -20 18 -26 -6 -26 -13 0 -20 7 -20 20 0 24 6 25 26 6z m-316 -36
c0 -6 -8 -10 -17 -10 -17 -1 -17 -1 0 -14 20 -16 23 -46 3 -46 -7 0 -19 -7
-26 -15 -10 -12 -10 -15 4 -15 9 0 16 -8 16 -20 0 -11 5 -20 10 -20 6 0 10 -9
10 -20 0 -29 -28 -25 -61 10 -16 16 -31 25 -34 21 -10 -17 27 -248 51 -321 45
-132 75 -176 224 -325 77 -77 145 -139 151 -137 6 1 8 -2 5 -7 -8 -12 34 -42
47 -34 6 3 7 1 4 -4 -8 -13 46 -63 168 -154 54 -40 100 -67 107 -63 6 4 8 3 5
-3 -8 -12 42 -51 163 -129 86 -55 536 -284 558 -284 7 0 12 8 12 18 0 14 2 15
10 2 6 -9 5 -17 -1 -21 -11 -6 76 -52 172 -89 102 -40 600 -292 645 -326 50
-38 54 -40 54 -19 0 8 -8 15 -18 15 -19 0 -42 18 -42 32 0 4 9 8 20 8 18 0 20
7 20 61 0 65 13 89 49 89 14 0 21 6 21 20 0 13 7 20 20 20 18 0 20 7 20 55 0
48 2 55 20 55 23 0 27 18 5 26 -26 10 -5 24 36 24 21 0 39 5 39 10 0 6 4 10
10 10 10 0 -20 -63 -32 -68 -10 -5 -10 -42 0 -42 4 0 14 9 22 20 8 11 22 20
32 20 10 0 18 5 18 10 0 6 -9 10 -20 10 -11 0 -20 5 -20 10 0 6 4 10 9 10 6 0
8 10 6 21 -2 12 2 33 9 48 24 47 36 155 35 322 0 212 -15 309 -54 349 -50 52
-123 61 -200 24 -19 -9 -38 -13 -44 -10 -5 4 -13 1 -17 -5 -4 -8 -3 -9 4 -5 7
4 12 5 12 1 0 -10 -50 -25 -65 -19 -9 4 -22 18 -30 33 -14 27 -115 90 -115 72
0 -6 -7 -11 -15 -11 -10 0 -15 -10 -15 -29 0 -31 -40 -67 -65 -57 -8 3 -17 0
-21 -6 -5 -7 -2 -8 6 -3 9 6 11 4 5 -4 -4 -7 -16 -11 -26 -8 -11 3 -17 1 -14
-4 6 -9 3 -14 -40 -63 -14 -16 -25 -37 -25 -47 0 -9 -4 -19 -9 -21 -16 -5 -24
-55 -30 -184 -5 -95 -3 -120 7 -117 6 3 12 -2 12 -10 0 -9 3 -24 6 -34 5 -15
4 -15 -5 -3 -7 10 -11 11 -11 3 0 -17 -48 -17 -64 0 -8 7 -17 28 -21 45 -3 18
-11 32 -16 32 -5 0 -9 47 -9 105 l0 105 34 0 c21 0 36 6 40 16 3 8 10 13 14
10 5 -3 18 15 30 39 18 37 19 45 7 45 -11 0 -15 13 -15 55 0 42 3 55 15 55 8
0 15 5 15 10 0 6 9 10 20 10 11 0 20 5 20 10 0 6 20 10 45 10 38 0 52 6 88 38
28 25 49 37 65 34 12 -2 22 -8 22 -14 0 -6 3 -9 6 -5 3 3 20 -10 37 -30 66
-74 68 -76 81 -63 8 10 8 14 -1 17 -7 3 -13 9 -13 15 0 7 17 9 44 6 26 -3 57
0 76 9 18 7 58 13 89 12 46 -2 60 -7 80 -28 13 -14 20 -21 17 -14 -3 6 -2 15
4 18 17 11 50 -35 50 -69 0 -20 7 -37 20 -46 15 -11 20 -26 20 -57 0 -36 3
-43 20 -43 13 0 20 -7 20 -20 0 -11 7 -20 15 -20 12 0 15 -17 15 -91 0 -81 2
-94 22 -110 11 -11 18 -22 14 -26 -4 -4 -11 -1 -16 7 -5 8 -13 11 -17 6 -4 -5
-2 -11 6 -14 11 -4 11 -6 0 -13 -12 -8 -11 -11 1 -19 13 -9 13 -11 0 -19 -8
-6 -11 -13 -8 -17 4 -3 15 1 24 11 14 14 15 18 3 25 -7 5 -10 12 -7 16 4 3 14
-1 23 -10 15 -14 14 -18 -9 -41 -25 -25 -66 -34 -66 -15 0 6 -11 10 -24 10
-19 0 -22 -4 -19 -24 3 -16 -2 -31 -16 -45 -23 -23 -20 -41 5 -41 8 0 14 -9
14 -20 0 -13 -7 -20 -20 -20 -13 0 -20 -7 -20 -20 0 -11 -7 -20 -15 -20 -8 0
-15 -7 -15 -15 0 -8 7 -15 15 -15 11 0 15 -11 15 -40 0 -29 -4 -40 -15 -40 -8
0 -15 -9 -15 -20 0 -11 7 -20 15 -20 11 0 15 -11 15 -41 0 -51 18 -69 70 -69
39 0 41 -1 38 -27 -2 -18 2 -28 10 -27 6 1 28 2 48 3 39 1 44 24 6 29 -12 2
-22 8 -22 14 0 12 152 8 161 -5 4 -5 21 -2 38 7 17 9 36 14 42 11 14 -9 -1 48
-15 58 -8 5 -6 10 4 17 13 9 13 11 0 20 -8 5 -27 10 -42 10 -16 0 -28 4 -28 9
0 5 -7 17 -16 26 -9 9 -13 19 -9 23 4 4 10 1 12 -5 6 -17 50 -17 56 0 4 9 8 8
16 -3 8 -12 13 -11 29 8 20 23 42 29 42 12 0 -5 9 -10 20 -10 11 0 20 5 20 10
0 6 -9 10 -20 10 -24 0 -25 6 -3 28 12 12 18 13 21 4 4 -14 32 -16 32 -2 0 6
18 10 40 10 33 0 40 -3 40 -20 0 -11 5 -20 10 -20 6 0 10 6 10 13 0 8 3 7 10
-3 7 -12 12 -11 28 8 24 28 52 29 52 2 0 -16 7 -20 34 -20 19 0 37 -6 40 -12
5 -10 7 -10 12 0 3 6 17 12 30 12 17 0 24 -6 24 -20 0 -15 7 -20 25 -20 14 0
37 -11 51 -25 14 -14 20 -25 14 -25 -5 0 -10 -5 -10 -12 0 -6 9 -3 20 7 14 13
23 15 32 7 7 -5 24 -12 38 -15 22 -4 21 -4 -7 -6 -17 0 -43 -5 -58 -11 -28
-11 -261 -50 -342 -57 -35 -3 -59 0 -75 10 -50 31 -118 32 -118 1 0 -8 12 -19
26 -24 42 -16 19 -27 -68 -33 -46 -4 -108 -11 -138 -17 -30 -6 -115 -14 -188
-19 -119 -7 -135 -10 -157 -31 -14 -13 -27 -32 -31 -42 -5 -15 -12 -17 -41
-12 -24 5 -34 3 -29 -4 3 -6 -1 -17 -9 -25 -13 -14 -10 -19 26 -48 37 -29 49
-33 108 -33 65 -1 66 -1 62 24 -1 14 -8 29 -15 33 -6 5 4 6 23 3 18 -3 83 -6
144 -6 107 0 111 -1 87 -17 -13 -9 -42 -20 -64 -24 -23 -4 -79 -15 -125 -24
-48 -9 -121 -14 -165 -13 l-81 3 3 33 c3 45 -19 51 -66 16 -20 -15 -40 -33
-44 -40 -8 -13 -88 -9 -153 7 -22 5 -69 11 -104 14 -53 3 -68 8 -88 29 l-24
26 31 0 c17 0 47 -7 67 -15 42 -18 43 -18 43 -5 0 6 -28 24 -62 40 -35 15 -77
41 -93 58 -42 40 -67 52 -109 52 -19 0 -48 5 -63 11 -15 6 -37 15 -48 19 -11
4 -43 17 -71 28 -28 12 -71 28 -97 37 -25 8 -83 33 -129 54 -46 21 -94 42
-108 46 -14 4 -50 20 -80 35 -30 16 -93 46 -140 68 -116 54 -181 86 -205 99
-34 19 -114 53 -125 53 -6 0 -18 4 -28 9 -9 6 -30 16 -47 24 -64 30 -131 73
-155 97 -8 8 -33 27 -55 41 -73 47 -186 173 -242 268 -21 36 -55 83 -75 105
-21 23 -50 59 -64 81 -15 22 -35 52 -46 67 -10 15 -18 32 -18 38 0 5 -4 10 -9
10 -5 0 -11 8 -14 18 -4 9 -17 35 -30 57 -13 22 -25 43 -25 48 -1 4 -9 23 -17
43 -8 20 -15 43 -15 50 0 7 -9 29 -20 49 -15 27 -20 54 -20 110 0 56 5 83 20
110 11 20 20 41 20 49 0 22 62 107 75 102 19 -7 75 31 75 51 0 9 -9 26 -20 38
l-20 22 35 1 c19 1 35 -3 35 -8z m461 -20 c6 2 59 -19 59 -23 0 -2 -18 1 -40
6 -25 7 -40 17 -40 27 0 12 2 12 9 2 4 -8 10 -13 12 -12z m229 10 c13 -8 13
-10 -2 -10 -9 0 -20 5 -23 10 -8 13 5 13 25 0z m6916 -58 c-5 -5 -98 27 -111
38 -34 28 -11 27 49 -3 35 -18 63 -33 62 -35z m-7316 28 c0 -15 57 -12 63 3 3
6 6 4 6 -7 1 -29 31 -45 86 -47 l50 -2 -50 -6 c-48 -6 -50 -7 -51 -38 -1 -18
2 -32 5 -31 15 1 51 -15 51 -23 0 -5 9 -9 20 -9 11 0 20 -4 20 -8 0 -10 53
-41 88 -53 l27 -8 -29 2 c-48 3 -42 -29 6 -34 4 0 21 -4 38 -9 38 -11 40 4 3
19 -26 10 -26 11 -3 6 59 -11 120 -30 120 -38 0 -4 -4 -5 -10 -2 -5 3 -10 2
-10 -3 0 -5 20 -7 44 -5 49 6 100 -3 92 -15 -3 -5 14 -6 36 -3 56 8 70 32 38
66 -13 13 -25 23 -28 20 -2 -2 -31 9 -63 25 -32 17 -66 30 -74 30 -12 0 -15 6
-10 21 5 14 2 25 -6 30 -24 15 19 11 54 -5 85 -39 162 -56 252 -56 70 0 96 4
105 15 15 18 30 20 30 3 0 -6 -3 -9 -6 -5 -4 3 -13 0 -21 -8 -10 -11 -38 -15
-99 -15 -49 0 -84 -4 -84 -10 0 -10 51 -14 158 -11 36 1 62 -3 62 -9 0 -5 9
-10 20 -10 11 0 20 -4 20 -10 0 -5 -16 -10 -35 -10 -35 0 -35 0 -35 -45 0 -33
4 -45 15 -45 18 0 19 -9 4 -30 -8 -11 -12 -12 -16 -2 -8 20 -43 15 -43 -7 0
-11 -6 -22 -12 -25 -10 -5 -10 -7 0 -12 19 -9 14 -24 -8 -24 -11 0 -20 -4 -20
-10 0 -8 47 -15 98 -13 6 1 12 -10 12 -23 0 -15 -6 -24 -15 -24 -8 0 -15 -9
-15 -20 0 -18 -7 -20 -55 -20 -30 0 -55 5 -55 10 0 6 20 10 45 10 25 0 45 5
45 10 0 6 -13 10 -30 10 -23 0 -30 4 -30 20 0 11 -7 20 -15 20 -8 0 -15 -9
-15 -20 0 -16 -7 -20 -30 -20 -16 0 -30 5 -30 10 0 6 5 10 10 10 6 0 10 5 10
10 0 6 -17 11 -37 11 -21 1 -30 3 -20 6 21 5 23 23 2 23 -8 0 -15 5 -15 10 0
6 5 10 10 10 6 0 10 9 10 20 0 15 7 20 25 20 14 0 25 5 25 10 0 6 -9 10 -20
10 -11 0 -20 5 -20 10 0 6 9 10 20 10 11 0 20 5 20 10 0 6 -11 10 -24 10 -14
0 -27 4 -31 10 -9 14 -35 0 -35 -19 0 -14 -2 -14 -10 -1 -7 11 -10 12 -10 2 0
-8 -7 -11 -19 -7 -13 4 -20 0 -24 -17 -4 -12 -4 -24 -2 -27 3 -2 5 1 5 7 0 7
9 12 20 12 18 0 20 -7 20 -55 0 -30 5 -55 10 -55 6 0 10 -9 10 -20 0 -11 -4
-20 -10 -20 -5 0 -10 -9 -10 -20 0 -13 -7 -20 -20 -20 -13 0 -20 7 -20 20 0
11 -7 20 -15 20 -8 0 -15 -9 -15 -20 0 -16 -7 -20 -35 -20 -28 0 -35 -4 -35
-20 0 -11 -7 -20 -16 -20 -8 0 -12 5 -9 10 3 6 1 10 -4 10 -6 0 -11 -4 -11
-10 0 -15 -87 -12 -94 3 -5 10 -7 10 -12 0 -10 -21 -44 -16 -44 7 0 11 -7 20
-15 20 -8 0 -15 -9 -15 -20 0 -11 -4 -20 -8 -20 -4 0 -14 9 -22 20 -11 15 -26
20 -57 20 -24 0 -43 2 -43 5 0 3 11 17 25 31 28 28 32 44 10 44 -8 0 -15 7
-15 15 0 8 7 15 15 15 8 0 15 9 15 20 0 13 7 20 20 20 18 0 20 7 20 55 l0 55
-36 0 -36 0 2 48 c2 26 2 53 1 60 -1 14 -41 17 -41 2 0 -5 -9 -10 -20 -10 -11
0 -20 -4 -20 -8 0 -4 9 -14 20 -22 31 -22 24 -30 -25 -30 -38 0 -45 3 -45 20
0 11 5 20 10 20 15 0 13 107 -2 113 -10 4 -9 8 2 16 13 10 13 12 0 21 -13 9
-13 11 0 20 11 7 4 10 -27 10 -36 0 -43 3 -43 20 0 13 7 20 20 20 11 0 20 -4
20 -10z m1203 -11 c-4 -14 -8 -17 -13 -9 -5 9 -13 9 -27 1 -11 -5 -23 -7 -27
-4 -7 8 33 31 56 32 12 1 15 -5 11 -20z m107 1 c0 -13 7 -20 20 -20 16 0 20
-7 20 -35 l0 -35 -55 0 c-48 0 -55 -2 -55 -20 0 -11 -4 -20 -10 -20 -5 0 -10
9 -10 20 0 11 5 20 10 20 6 0 10 14 10 30 0 26 5 31 30 37 17 3 30 9 30 14 0
5 -13 9 -30 9 -16 0 -30 5 -30 10 0 6 16 10 35 10 28 0 35 -4 35 -20z m-1420
-10 c0 -5 -7 -10 -15 -10 -8 0 -15 5 -15 10 0 6 7 10 15 10 8 0 15 -4 15 -10z
m380 0 c0 -5 -7 -7 -15 -4 -8 4 -15 8 -15 10 0 2 7 4 15 4 8 0 15 -4 15 -10z
m59 -29 c11 -11 32 -21 48 -24 28 -4 28 -4 -3 -6 -18 0 -37 6 -45 15 -7 9 -22
20 -34 24 -17 7 -17 9 -2 9 9 1 26 -8 36 -18z m714 12 c-7 -2 -21 -2 -30 0
-10 3 -4 5 12 5 17 0 24 -2 18 -5z m-68 -13 c-3 -5 -14 -10 -24 -10 -9 0 -22
-5 -28 -11 -5 -5 -30 -9 -54 -6 l-44 4 48 1 c26 1 47 6 47 11 0 5 12 12 28 14
15 2 28 5 30 6 2 0 0 -3 -3 -9z m-740 -28 c-3 -3 -11 0 -18 7 -9 10 -8 11 6 5
10 -3 15 -9 12 -12z m585 -2 c0 -5 -2 -10 -4 -10 -3 0 -8 5 -11 10 -3 6 -1 10
4 10 6 0 11 -4 11 -10z m-960 -10 c0 -5 7 -10 15 -10 8 0 15 -9 15 -20 0 -16
-7 -20 -35 -20 -37 0 -46 18 -22 45 14 17 27 19 27 5z m488 -11 c97 -43 107
-49 94 -49 -7 0 -20 4 -30 9 -18 10 -74 34 -113 50 -13 5 -18 10 -11 10 7 1
34 -9 60 -20z m86 2 c4 -5 -3 -7 -14 -4 -23 6 -26 13 -6 13 8 0 17 -4 20 -9z
m453 -26 c1 -15 0 -15 -3 -3 -3 9 -13 19 -22 22 -12 3 -12 4 3 3 12 -1 21 -10
22 -22z m-887 -5 c0 -5 -4 -10 -10 -10 -5 0 -10 5 -10 10 0 6 5 10 10 10 6 0
10 -4 10 -10z m-270 -45 c0 -8 -4 -15 -10 -15 -5 0 -10 7 -10 15 0 8 5 15 10
15 6 0 10 -7 10 -15z m90 -32 c0 -23 5 -43 10 -43 6 0 10 5 10 10 0 6 5 10 10
10 6 0 10 -13 10 -30 0 -20 5 -30 15 -30 12 0 15 -17 15 -89 0 -62 -4 -91 -12
-94 -7 -2 -10 -8 -6 -12 4 -4 14 0 24 9 9 10 24 14 35 11 12 -4 21 -1 25 9 7
19 44 21 44 3 0 -7 -9 -19 -20 -27 -12 -8 -21 -27 -21 -45 -1 -23 -3 -25 -6
-7 -2 12 -10 22 -16 22 -19 -1 -51 -29 -42 -37 4 -5 10 -2 12 5 12 32 23 6 23
-53 0 -65 0 -65 -29 -65 -25 0 -30 5 -35 35 -5 26 -12 35 -26 35 -11 0 -20 5
-20 11 0 6 -9 8 -20 4 -17 -5 -20 -2 -20 25 0 23 5 33 20 37 11 3 20 14 20 24
0 11 6 19 13 20 10 0 10 2 0 6 -7 2 -13 13 -13 23 0 10 6 21 13 24 10 5 10 7
0 12 -7 3 -13 14 -13 25 0 15 -7 19 -35 19 -28 0 -35 4 -35 20 0 13 -7 20 -20
20 -18 0 -20 7 -20 55 0 48 2 55 20 55 13 0 20 7 20 18 0 25 5 29 40 29 29 0
30 -2 30 -44z m-1080 12 c14 -8 13 -78 -2 -110 -19 -42 -75 -30 -181 38 -28
18 -65 42 -82 53 l-30 19 90 6 c98 7 188 4 205 -6z m1120 -5 c0 -5 -4 -10 -10
-10 -5 0 -10 5 -10 10 0 6 5 10 10 10 6 0 10 -4 10 -10z m1160 -40 c0 -5 -7
-10 -15 -10 -8 0 -15 5 -15 10 0 6 7 10 15 10 8 0 15 -4 15 -10z m-2736 -76
c-54 -119 -72 -181 -89 -321 -16 -125 -17 -153 -5 -230 8 -51 14 -185 15 -318
1 -126 5 -243 9 -260 l9 -30 -37 35 c-20 19 -39 46 -43 60 -3 14 -10 30 -15
37 -24 30 -57 210 -58 308 0 204 73 474 196 716 42 84 56 87 18 3z m2666 36
c0 -5 -4 -10 -10 -10 -5 0 -10 5 -10 10 0 6 5 10 10 10 6 0 10 -4 10 -10z
m-950 -25 c0 -9 -9 -15 -25 -15 -18 0 -23 4 -19 15 4 8 15 15 25 15 10 0 19
-7 19 -15z m1060 5 c0 -15 47 -12 53 3 4 9 8 8 16 -3 10 -13 12 -13 21 0 9 13
11 13 21 0 8 -11 12 -12 16 -2 14 34 23 3 23 -78 l0 -90 -85 0 c-50 0 -85 -4
-85 -10 0 -5 5 -10 10 -10 6 0 10 -4 10 -10 0 -5 -9 -10 -20 -10 -13 0 -20 7
-20 20 0 16 -7 20 -35 20 -24 0 -35 5 -35 15 0 9 -9 15 -25 15 -18 0 -25 5
-25 20 0 15 7 20 25 20 18 0 25 5 25 20 0 11 -4 20 -10 20 -5 0 -10 5 -10 10
0 6 7 10 16 10 18 0 44 23 44 39 0 6 16 11 35 11 19 0 35 -4 35 -10z m2180
-153 c0 -7 14 -21 30 -32 16 -11 30 -24 30 -28 0 -4 -15 3 -33 17 -19 15 -39
26 -45 26 -13 0 -16 22 -6 33 9 9 24 -1 24 -16z m-4488 -40 c19 -6 32 -22 44
-53 22 -58 34 -56 27 4 -4 37 -2 51 11 61 9 8 18 12 19 10 29 -40 195 -239
236 -281 l54 -58 -29 0 c-17 0 -63 21 -109 50 -44 26 -81 47 -83 45 -6 -5 129
-165 174 -205 21 -19 74 -63 119 -98 44 -34 88 -69 98 -77 15 -13 51 -37 197
-131 19 -12 47 -28 63 -35 40 -18 33 -32 -15 -26 -206 22 -335 73 -430 170
-86 87 -188 208 -188 222 0 18 -40 50 -96 79 -29 14 -66 42 -83 63 -29 35 -31
42 -31 122 l0 85 -48 46 -48 46 46 -15 c25 -8 57 -18 72 -24z m4108 23 c13 -9
13 -11 0 -20 -13 -9 -13 -11 -1 -19 12 -8 11 -12 -3 -27 -15 -14 -19 -15 -27
-3 -8 12 -10 12 -18 -1 -6 -8 -13 -11 -18 -7 -4 5 -1 12 7 18 13 8 13 10 0 18
-8 6 -11 13 -7 18 5 4 12 1 17 -6 7 -12 11 -11 26 3 14 15 15 19 3 27 -8 5 -9
9 -4 9 6 0 17 -5 25 -10z m-2790 -20 c0 -11 5 -20 10 -20 6 0 10 5 10 10 0 6
5 10 10 10 6 0 10 -13 10 -30 0 -23 -4 -30 -20 -30 -14 0 -20 -7 -20 -21 0
-18 -2 -19 -15 -5 -18 18 -19 38 -3 54 9 9 9 12 0 12 -7 0 -12 9 -12 20 0 11
7 20 15 20 8 0 15 -9 15 -20z m2980 10 c0 -5 -4 -10 -10 -10 -5 0 -10 5 -10
10 0 6 5 10 10 10 6 0 10 -4 10 -10z m1155 -95 c39 -8 88 -15 110 -17 33 -1
30 -2 -20 -8 -45 -5 -50 -7 -22 -8 20 -1 37 -7 37 -13 0 -7 -19 -8 -57 -4
-101 11 -204 28 -199 32 2 3 22 11 43 18 21 8 38 14 38 15 0 0 32 -7 70 -15z
m-3691 -7 c5 -10 7 -10 12 0 10 21 24 13 24 -13 0 -18 -5 -25 -20 -25 -11 0
-20 -4 -20 -10 0 -5 9 -10 20 -10 17 0 20 -7 20 -50 0 -38 4 -50 15 -50 10 0
15 -11 15 -35 0 -24 -5 -35 -15 -35 -10 0 -15 -11 -15 -35 0 -28 -4 -35 -20
-35 -13 0 -20 -7 -20 -20 0 -12 -7 -20 -16 -20 -14 0 -15 11 -9 83 3 45 11 84
17 86 6 2 5 7 -3 12 -12 8 -11 11 1 19 13 8 13 11 1 19 -14 9 -25 84 -15 113
6 21 20 23 28 6z m2296 2 c0 -5 -4 -10 -10 -10 -5 0 -10 5 -10 10 0 6 5 10 10
10 6 0 10 -4 10 -10z m40 0 c0 -5 -4 -10 -10 -10 -5 0 -10 5 -10 10 0 6 5 10
10 10 6 0 10 -4 10 -10z m-2810 -80 c0 -33 -3 -40 -20 -40 -16 0 -20 -7 -20
-35 0 -28 4 -35 20 -35 13 0 20 -7 20 -20 0 -27 -7 -25 -38 8 -15 16 -37 34
-49 41 -26 13 -31 41 -8 41 11 0 15 11 15 40 l0 40 40 0 40 0 0 -40z m4313 23
c-7 -2 -19 -2 -25 0 -7 3 -2 5 12 5 14 0 19 -2 13 -5z m-1193 -43 c0 -11 -4
-20 -10 -20 -5 0 -10 9 -10 20 0 11 5 20 10 20 6 0 10 -9 10 -20z m235 -10 c3
-5 1 -10 -4 -10 -6 0 -11 5 -11 10 0 6 2 10 4 10 3 0 8 -4 11 -10z m-595 -60
c8 -5 11 -12 8 -16 -4 -3 -14 1 -23 10 -18 17 -9 21 15 6z m-1170 -10 c0 -5
-4 -10 -10 -10 -5 0 -10 5 -10 10 0 6 5 10 10 10 6 0 10 -4 10 -10z m1220 0
c0 -5 -4 -10 -10 -10 -5 0 -10 5 -10 10 0 6 5 10 10 10 6 0 10 -4 10 -10z
m-2740 -30 c0 -13 7 -20 20 -20 13 0 20 -7 20 -20 0 -11 7 -20 15 -20 8 0 15
-7 15 -15 0 -9 -6 -12 -15 -9 -11 5 -15 -1 -15 -20 0 -14 -4 -26 -10 -26 -5 0
-10 9 -10 20 0 23 -4 24 -32 9 -18 -10 -20 -9 -15 5 4 11 1 16 -9 16 -11 0
-14 6 -10 16 3 9 6 31 6 50 0 27 4 34 20 34 13 0 20 -7 20 -20z m1810 10 c0
-5 -4 -10 -10 -10 -5 0 -10 5 -10 10 0 6 5 10 10 10 6 0 10 -4 10 -10z m440 0
c0 -5 -4 -10 -10 -10 -5 0 -10 5 -10 10 0 6 5 10 10 10 6 0 10 -4 10 -10z
m450 -20 c0 -5 -4 -10 -10 -10 -5 0 -10 5 -10 10 0 6 5 10 10 10 6 0 10 -4 10
-10z m290 0 c0 -5 -4 -10 -10 -10 -5 0 -10 5 -10 10 0 6 5 10 10 10 6 0 10 -4
10 -10z m-760 -50 c0 -11 -4 -20 -10 -20 -5 0 -10 9 -10 20 0 11 5 20 10 20 6
0 10 -9 10 -20z m-2080 -60 c0 -5 -4 -10 -10 -10 -5 0 -10 5 -10 10 0 6 5 10
10 10 6 0 10 -4 10 -10z m290 -65 c0 -43 -4 -75 -10 -75 -5 0 -10 -9 -10 -20
0 -11 5 -20 10 -20 6 0 10 -13 10 -30 0 -20 5 -30 15 -30 9 0 15 -9 15 -25 0
-16 -6 -25 -15 -25 -8 0 -15 -9 -15 -20 0 -11 -4 -20 -10 -20 -5 0 -10 9 -10
20 0 11 5 20 10 20 6 0 10 11 10 25 0 18 -5 25 -20 25 -18 0 -20 7 -20 59 0
38 4 61 13 65 6 2 1 4 -13 3 -38 -3 -40 49 -3 91 15 17 31 31 36 32 4 0 7 -34
7 -75z m2550 65 c0 -5 -4 -10 -10 -10 -5 0 -10 5 -10 10 0 6 5 10 10 10 6 0
10 -4 10 -10z m-2930 -40 c0 -5 -4 -10 -10 -10 -5 0 -10 5 -10 10 0 6 5 10 10
10 6 0 10 -4 10 -10z m54 -22 c5 -10 7 -10 12 0 3 6 10 10 15 6 12 -7 12 -64
-1 -64 -5 0 -10 7 -10 15 0 8 -9 15 -20 15 -13 0 -20 7 -20 20 0 22 15 27 24
8z m396 -68 c0 -5 -4 -10 -10 -10 -5 0 -10 5 -10 10 0 6 5 10 10 10 6 0 10 -4
10 -10z m70 -10 c0 -13 7 -20 20 -20 13 0 20 -7 20 -20 0 -13 -7 -20 -20 -20
-14 0 -20 -7 -21 -22 l-2 -23 -4 23 c-3 13 -12 22 -23 22 -10 0 -21 6 -23 13
-4 9 -8 8 -16 -3 -5 -8 -13 -11 -17 -7 -4 4 3 15 14 26 12 10 22 26 22 35 0
10 9 16 25 16 18 0 25 -5 25 -20z m2850 0 c0 -24 -6 -25 -26 -6 -19 20 -18 26
6 26 13 0 20 -7 20 -20z m235 -22 c-3 -8 -29 -21 -58 -30 -29 -9 -61 -19 -72
-23 -15 -5 -17 -4 -5 3 8 6 39 18 68 27 30 10 56 24 59 32 3 8 7 12 9 10 3 -2
2 -11 -1 -19z m-2625 -38 c0 -13 7 -20 20 -20 11 0 20 -4 20 -10 0 -5 -4 -10
-10 -10 -5 0 -10 -6 -10 -14 0 -8 -6 -17 -12 -20 -10 -5 -10 -7 0 -12 23 -11
12 -24 -21 -24 -21 0 -38 -7 -47 -20 -10 -14 -26 -20 -52 -20 -21 0 -38 -5
-38 -11 0 -6 -8 -3 -17 7 -13 13 -14 19 -5 22 6 2 12 18 12 35 0 23 3 28 9 18
7 -11 14 -9 35 13 25 24 26 26 6 26 -11 0 -20 5 -20 10 0 6 8 10 18 10 10 0
24 9 32 20 9 13 26 20 47 20 26 0 33 -4 33 -20z m2390 10 c0 -5 15 -10 34 -10
21 0 36 -6 40 -15 5 -15 -19 -20 -86 -15 -15 1 -38 -6 -52 -15 -14 -9 -29 -14
-33 -12 -5 3 -9 -7 -8 -21 0 -26 -2 -27 -57 -30 l-58 -3 0 30 c0 16 6 32 13
34 6 3 0 6 -15 6 -28 1 -41 21 -14 21 8 0 17 6 19 13 4 9 8 8 17 -3 9 -11 13
-12 17 -2 8 21 43 14 43 -9 0 -22 8 -22 108 -3 35 7 44 24 12 24 -11 0 -20 5
-20 10 0 6 9 10 20 10 11 0 20 -4 20 -10z m-70 -20 c0 -5 -4 -10 -10 -10 -5 0
-10 5 -10 10 0 6 5 10 10 10 6 0 10 -4 10 -10z m-2850 -50 c0 -5 -4 -10 -10
-10 -5 0 -10 5 -10 10 0 6 5 10 10 10 6 0 10 -4 10 -10z m2630 0 c0 -5 -4 -10
-10 -10 -5 0 -10 5 -10 10 0 6 5 10 10 10 6 0 10 -4 10 -10z m0 -40 c0 -5 -4
-10 -10 -10 -5 0 -10 5 -10 10 0 6 5 10 10 10 6 0 10 -4 10 -10z m248 -31 c2
-5 7 -7 12 -4 4 3 23 -17 41 -44 19 -28 44 -54 57 -60 12 -6 22 -14 22 -19 0
-5 35 -26 78 -46 42 -21 94 -46 115 -57 24 -11 59 -19 92 -19 29 0 66 -3 83
-6 l31 -6 -27 -34 c-16 -20 -33 -32 -42 -29 -8 2 -22 0 -30 -6 -12 -8 -9 -9 9
-4 16 5 21 4 17 -4 -4 -6 -17 -11 -29 -11 -12 0 -47 -7 -77 -15 -30 -9 -89
-22 -130 -30 -116 -21 -131 -25 -200 -45 -107 -31 -210 -53 -217 -46 -3 3 1 6
9 6 8 0 24 11 34 25 19 26 48 33 59 15 3 -5 17 -10 31 -10 24 0 50 21 90 75
21 29 34 32 34 9 0 -18 20 -40 35 -39 34 3 55 18 55 41 0 27 20 34 20 7 1 -17
1 -17 14 0 7 9 18 17 25 17 6 0 11 16 11 36 0 27 5 37 20 41 11 3 20 9 20 13
0 4 10 11 23 14 21 6 21 7 -8 20 -16 7 -33 12 -36 10 -4 -2 -12 3 -19 11 -7 8
-20 15 -30 15 -9 0 -30 11 -46 25 -16 14 -35 25 -42 25 -7 0 -11 4 -7 10 3 5
-9 13 -27 18 -27 7 -32 13 -30 32 3 20 2 22 -11 12 -17 -14 -43 -7 -51 14 -4
11 -2 12 14 4 25 -13 30 -13 30 4 0 8 -19 24 -42 36 -36 18 -38 21 -13 15 17
-3 32 -11 33 -16z m-2883 -41 c6 -4 2 -8 -7 -8 -10 0 -18 7 -18 17 0 9 3 12 8
7 4 -5 12 -12 17 -16z m595 -69 c0 -25 -33 -22 -38 4 -2 12 3 17 17 17 15 0
21 -6 21 -21z m2316 7 c19 -20 18 -26 -6 -26 -13 0 -20 7 -20 20 0 24 6 25 26
6z m-1986 -91 c32 -77 51 -114 62 -126 7 -8 19 -26 27 -41 8 -15 38 -42 67
-60 30 -17 52 -34 49 -36 -2 -2 -14 3 -27 12 -12 9 -30 16 -40 16 -10 0 -18 5
-18 10 0 6 -4 10 -10 10 -5 0 -10 -13 -10 -30 0 -22 -4 -28 -15 -24 -9 4 -15
19 -15 40 0 27 -4 34 -20 34 -13 0 -20 7 -20 20 0 13 7 20 20 20 17 0 18 3 9
19 -14 21 -49 17 -49 -5 0 -8 -4 -14 -10 -14 -14 0 -12 27 3 34 10 5 10 7 0
12 -17 7 -17 41 -1 46 9 3 8 9 -5 22 -9 10 -17 22 -17 27 0 5 -10 10 -22 10
l-23 2 23 4 c16 3 22 12 23 31 1 20 2 22 6 7 2 -11 8 -29 13 -40z m800 35 c0
-5 11 -10 25 -10 30 0 31 -4 5 -30 -26 -26 -30 -25 -30 5 0 14 -4 25 -10 25
-5 0 -10 5 -10 10 0 6 5 10 10 10 6 0 10 -4 10 -10z m-1330 -25 c0 -8 -4 -15
-10 -15 -5 0 -7 7 -4 15 4 8 8 15 10 15 2 0 4 -7 4 -15z m1420 5 c0 -5 -4 -10
-10 -10 -5 0 -10 5 -10 10 0 6 5 10 10 10 6 0 10 -4 10 -10z m1247 -16 c-3 -3
-12 -4 -19 -1 -8 3 -5 6 6 6 11 1 17 -2 13 -5z m-3975 -57 c20 -23 32 -43 27
-45 -14 -5 -111 44 -144 73 l-30 27 55 -7 c49 -5 59 -11 92 -48z m2598 43 c0
-5 -4 -10 -10 -10 -5 0 -10 5 -10 10 0 6 5 10 10 10 6 0 10 -4 10 -10z m-1245
-20 c3 -5 1 -10 -4 -10 -6 0 -11 5 -11 10 0 6 2 10 4 10 3 0 8 -4 11 -10z
m1305 -20 c0 -5 -4 -10 -10 -10 -5 0 -10 5 -10 10 0 6 5 10 10 10 6 0 10 -4
10 -10z m-1300 -20 c0 -5 -4 -10 -10 -10 -5 0 -10 5 -10 10 0 6 5 10 10 10 6
0 10 -4 10 -10z m200 -20 c0 -5 -4 -10 -10 -10 -5 0 -10 5 -10 10 0 6 5 10 10
10 6 0 10 -4 10 -10z m783 -67 c-7 -2 -21 -2 -30 0 -10 3 -4 5 12 5 17 0 24
-2 18 -5z m1567 -14 c0 -18 -2 -19 -15 -5 -8 8 -15 17 -15 20 0 3 7 6 15 6 9
0 15 -9 15 -21z m-1050 -9 c0 -5 -4 -10 -10 -10 -5 0 -10 5 -10 10 0 6 5 10
10 10 6 0 10 -4 10 -10z m-2951 -41 c50 -27 64 -42 131 -146 106 -164 170
-283 170 -318 0 -25 -2 -27 -13 -15 -8 8 -40 58 -71 110 -65 107 -77 122 -269
376 -24 31 -16 30 52 -7z m2691 1 c0 -5 9 -10 20 -10 13 0 20 -7 20 -20 0 -16
-7 -20 -30 -20 -30 0 -40 14 -17 24 10 5 10 7 0 12 -15 7 -17 24 -3 24 6 0 10
-4 10 -10z m220 -40 c0 -5 -4 -10 -10 -10 -5 0 -10 5 -10 10 0 6 5 10 10 10 6
0 10 -4 10 -10z m-740 -50 c0 -5 -4 -10 -10 -10 -5 0 -10 5 -10 10 0 6 5 10
10 10 6 0 10 -4 10 -10z m160 -10 c0 -13 -7 -20 -20 -20 -23 0 -26 10 -8 28
18 18 28 15 28 -8z m507 -96 c-3 -3 -12 -4 -19 -1 -8 3 -5 6 6 6 11 1 17 -2
13 -5z m-262 -154 c13 -6 15 -9 5 -9 -8 0 -22 4 -30 9 -18 12 -2 12 25 0z
m-888 -36 c-3 -3 -12 -4 -19 -1 -8 3 -5 6 6 6 11 1 17 -2 13 -5z m-948 -86
c75 -67 77 -82 10 -95 -48 -10 -51 -9 -66 16 -9 14 -32 43 -51 63 -42 45 -38
68 13 68 28 0 47 -10 94 -52z m695 13 c14 -6 26 -19 28 -33 4 -28 52 -61 122
-83 30 -9 77 -36 106 -60 29 -24 68 -52 87 -62 23 -12 31 -22 27 -33 -7 -16
-12 -29 -72 -220 -19 -63 -39 -119 -43 -125 -3 -5 -9 -27 -13 -47 -5 -28 -3
-39 10 -46 14 -8 7 -22 -47 -98 -35 -49 -88 -120 -118 -158 -31 -37 -63 -79
-72 -92 -17 -26 -137 -154 -144 -154 -7 0 -27 80 -36 145 -4 33 -15 103 -23
155 -9 52 -16 125 -16 162 0 95 37 408 61 508 11 47 22 94 24 105 5 21 81 145
89 145 3 0 16 -4 30 -9z m397 -48 c12 -15 12 -16 -4 -10 -10 4 -26 7 -35 7
-15 0 -15 2 -2 10 21 13 25 13 41 -7z m142 -10 c-7 -2 -13 -14 -13 -26 -1 -21
-1 -21 -11 -3 -11 19 2 37 26 35 6 0 4 -3 -2 -6z m984 -7 c0 -16 -55 -41 -170
-80 -75 -25 -174 -35 -163 -17 4 5 0 12 -6 14 -7 3 -1 6 13 6 68 2 208 34 263
61 34 16 61 29 62 29 0 1 1 -5 1 -13z m-736 -39 c-10 -9 -11 -8 -5 6 3 10 9
15 12 12 3 -3 0 -11 -7 -18z m884 -182 c9 -123 -10 -404 -35 -530 -6 -27 -13
-70 -16 -95 -3 -25 -11 -67 -19 -95 -8 -27 -16 -63 -18 -80 -4 -29 -8 -44 -28
-93 -5 -13 -9 -33 -9 -45 0 -26 -21 -77 -32 -77 -5 0 -8 -11 -8 -24 0 -14 -4
-28 -10 -31 -5 -3 -10 -17 -10 -31 0 -31 -45 -111 -81 -144 -15 -14 -48 -31
-73 -38 -42 -11 -50 -10 -100 13 -39 18 -64 38 -86 69 -16 25 -30 48 -30 53 0
4 -9 19 -20 33 -11 14 -20 34 -20 45 0 12 -5 26 -11 32 -5 5 -14 52 -19 104
-5 52 -14 128 -19 169 -18 132 -13 328 17 659 l7 74 57 1 c32 1 58 5 58 10 0
4 9 -2 19 -15 18 -23 21 -23 67 -10 27 7 74 18 104 23 98 15 259 111 282 166
l11 27 8 -35 c4 -19 10 -80 14 -135z m661 2 c16 -8 58 -31 94 -50 36 -19 79
-43 96 -53 18 -10 74 -43 125 -73 52 -30 117 -71 144 -91 66 -47 184 -120 195
-120 18 0 50 -70 64 -136 7 -38 17 -78 22 -89 14 -36 -18 5 -41 50 -11 22 -28
47 -37 56 -10 9 -18 21 -18 26 0 19 -136 151 -179 174 -54 28 -75 18 -79 -37
-2 -31 3 -46 25 -71 50 -57 62 -72 97 -125 19 -29 45 -66 57 -81 12 -16 36
-56 54 -90 72 -139 72 -139 145 -198 46 -37 45 -36 81 -170 5 -20 9 -66 9
-103 0 -66 18 -146 32 -146 5 0 8 -13 8 -30 0 -21 -5 -30 -17 -30 -22 0 -86
-23 -94 -33 -4 -5 -33 -10 -65 -11 -56 -1 -59 -2 -62 -28 -3 -22 -12 -30 -50
-43 -26 -9 -55 -21 -64 -26 -10 -5 -29 -9 -43 -9 -14 0 -25 -4 -25 -9 0 -4
-21 -14 -47 -21 -27 -6 -66 -19 -88 -27 -22 -8 -67 -19 -100 -24 -33 -5 -80
-13 -105 -19 -77 -17 -345 -23 -495 -11 -76 7 -141 14 -143 16 -8 7 47 159 84
235 20 41 39 69 41 62 3 -8 16 -3 39 18 19 16 39 30 44 30 6 0 10 7 10 15 0 8
4 15 8 15 13 0 30 127 19 145 -12 23 -1 48 41 91 43 45 96 143 90 169 -1 10
-16 26 -33 35 -25 14 -31 24 -33 58 -2 22 4 65 13 94 9 29 21 82 26 118 4 36
11 79 14 95 4 17 9 87 12 158 3 97 1 142 -11 191 -17 66 -11 108 16 120 22 9
93 0 124 -17z m-2890 -22 c9 -14 20 -22 25 -19 13 7 12 -4 -13 -177 -13 -93
-21 -205 -21 -284 0 -131 26 -415 43 -469 9 -26 8 -27 -8 -15 -82 63 -252 249
-252 276 0 18 -31 73 -42 73 -4 0 -22 -13 -40 -29 -33 -29 -46 -65 -64 -186
-3 -22 -15 -64 -27 -93 l-21 -52 31 -33 c17 -17 34 -43 38 -57 21 -78 85 -197
132 -250 l45 -50 -34 -2 c-44 -2 -44 -2 -108 12 -30 6 -91 16 -135 20 -113 13
-154 21 -161 31 -3 5 -25 9 -49 9 -25 0 -59 8 -78 19 -18 10 -48 22 -65 26
-18 3 -34 11 -37 16 -4 5 -14 9 -25 9 -10 0 -42 13 -71 28 -98 51 -116 56
-134 39 -8 -9 -15 -19 -15 -24 0 -4 -8 -18 -18 -31 -15 -19 -22 -21 -42 -13
-14 6 -37 21 -52 33 l-27 23 62 67 c34 37 85 94 112 127 28 33 65 77 83 98 17
20 32 41 32 46 0 9 16 29 100 127 90 104 142 178 174 244 39 80 91 137 209
229 162 125 370 256 409 257 19 0 33 -8 44 -25z m1211 -297 c-3 -8 -6 -5 -6 6
-1 11 2 17 5 13 3 -3 4 -12 1 -19z m220 -140 c-3 -8 -6 -5 -6 6 -1 11 2 17 5
13 3 -3 4 -12 1 -19z m-10 -100 c-2 -13 -4 -3 -4 22 0 25 2 35 4 23 2 -13 2
-33 0 -45z m-487 8 c0 -2 -8 -10 -17 -17 -16 -13 -17 -12 -4 4 13 16 21 21 21
13z m-129 -169 l-24 -22 19 27 c10 14 21 24 23 22 3 -3 -6 -15 -18 -27z
m-1027 -213 c3 -8 2 -12 -4 -9 -6 3 -10 10 -10 16 0 14 7 11 14 -7z m1166 -4
c-6 -11 -13 -20 -16 -20 -2 0 0 9 6 20 6 11 13 20 16 20 2 0 0 -9 -6 -20z
m-1069 -107 c13 -16 12 -17 -3 -4 -10 7 -18 15 -18 17 0 8 8 3 21 -13z m1496
-235 c-3 -8 -6 -5 -6 6 -1 11 2 17 5 13 3 -3 4 -12 1 -19z m1173 13 c0 -5 -7
-11 -14 -14 -10 -4 -13 -1 -9 9 6 15 23 19 23 5z"/>
<path d="M2830 6620 c0 -5 5 -10 10 -10 6 0 10 5 10 10 0 6 -4 10 -10 10 -5 0
-10 -4 -10 -10z"/>
<path d="M2636 6602 c-3 -5 1 -9 9 -9 8 0 15 4 15 9 0 4 -4 8 -9 8 -6 0 -12
-4 -15 -8z"/>
<path d="M3040 6060 c6 -11 13 -20 16 -20 2 0 0 9 -6 20 -6 11 -13 20 -16 20
-2 0 0 -9 6 -20z"/>
<path d="M3050 6011 c0 -14 -6 -21 -20 -21 -14 0 -20 -7 -20 -24 0 -13 6 -27
13 -30 10 -5 10 -7 0 -12 -25 -11 -13 -24 22 -24 28 0 35 4 35 19 0 11 -7 26
-15 35 -17 17 -19 26 -6 26 5 0 13 -9 16 -21 5 -14 14 -19 28 -17 28 4 28 20
0 33 -12 5 -23 18 -25 29 -4 27 -28 33 -28 7z"/>
<path d="M3120 5920 c0 -11 -4 -20 -10 -20 -5 0 -10 -9 -10 -20 0 -11 5 -20
10 -20 6 0 10 9 10 20 0 29 32 25 46 -5 9 -18 9 -25 0 -28 -6 -2 -8 -8 -4 -12
4 -4 14 0 23 9 9 9 12 16 6 16 -6 0 -10 4 -8 9 3 12 -41 71 -53 71 -6 0 -10
-9 -10 -20z"/>
<path d="M3050 5870 c0 -5 5 -10 10 -10 6 0 10 5 10 10 0 6 -4 10 -10 10 -5 0
-10 -4 -10 -10z"/>
<path d="M2940 5835 c0 -14 6 -25 13 -25 21 0 27 11 16 31 -14 27 -29 23 -29
-6z"/>
<path d="M2750 5820 c0 -5 7 -10 15 -10 8 0 15 5 15 10 0 6 -7 10 -15 10 -8 0
-15 -4 -15 -10z"/>
<path d="M3326 6622 c-7 -11 -16 -183 -20 -389 -4 -135 -3 -143 15 -143 12 0
19 -7 19 -20 0 -11 -6 -20 -14 -20 -10 0 -14 -9 -12 -27 2 -16 4 -34 5 -40 1
-9 8 -10 25 -3 13 5 33 6 45 3 17 -4 21 -13 21 -44 0 -39 0 -39 40 -39 33 0
40 -4 40 -19 0 -21 -22 -33 -45 -25 -8 4 -15 2 -15 -4 0 -14 26 -33 34 -24 4
4 7 3 6 -3 -5 -22 1 -35 15 -35 8 0 15 -4 15 -10 0 -5 18 -10 39 -10 22 0 42
-5 44 -12 4 -10 6 -10 6 0 1 6 10 12 22 12 11 0 17 5 14 10 -3 6 -15 10 -26
10 -10 0 -19 5 -19 10 0 13 47 13 55 0 11 -18 35 2 35 31 0 20 -5 29 -16 29
-13 0 -15 7 -10 30 3 17 1 30 -4 30 -6 0 -10 18 -10 40 0 27 -5 43 -15 46 -8
4 -15 18 -15 32 0 14 -11 39 -24 56 -13 17 -36 56 -52 86 -28 55 -30 61 -33
81 0 5 -6 7 -12 4 -6 -4 -10 -1 -8 6 1 8 1 21 0 29 -1 13 -2 13 -11 0 -8 -12
-10 -11 -10 8 0 12 -6 22 -13 22 -20 0 -47 33 -47 58 0 12 4 22 9 22 15 0 21
70 13 145 l-7 70 -37 3 c-20 2 -39 -1 -42 -6z"/>
<path d="M3360 5960 c0 -19 3 -21 12 -12 9 9 9 15 0 24 -9 9 -12 7 -12 -12z"/>
<path d="M5880 6570 c0 -11 -4 -20 -10 -20 -5 0 -10 -7 -10 -15 0 -8 -4 -15
-10 -15 -5 0 -10 -13 -10 -30 0 -25 4 -30 24 -30 13 0 26 -5 28 -12 8 -22 38
1 38 28 0 34 -21 94 -33 94 -4 0 -5 5 -2 10 3 6 1 10 -4 10 -6 0 -11 -9 -11
-20z m10 -60 c0 -5 -7 -10 -15 -10 -8 0 -15 5 -15 10 0 6 7 10 15 10 8 0 15
-4 15 -10z"/>
<path d="M5750 6190 c0 -5 5 -10 10 -10 6 0 10 5 10 10 0 6 -4 10 -10 10 -5 0
-10 -4 -10 -10z"/>
<path d="M5710 6000 c0 -5 4 -10 9 -10 5 0 17 -7 26 -17 14 -14 18 -14 26 -2
6 9 4 15 -6 17 -8 2 -15 8 -15 13 0 5 -9 9 -20 9 -11 0 -20 -4 -20 -10z"/>
<path d="M5890 6000 c0 -5 9 -10 20 -10 11 0 20 5 20 10 0 6 -9 10 -20 10 -11
0 -20 -4 -20 -10z"/>
<path d="M5780 5920 c0 -24 6 -25 26 -6 19 20 18 26 -6 26 -13 0 -20 -7 -20
-20z"/>
<path d="M5690 5880 c0 -11 5 -20 10 -20 6 0 10 -16 10 -35 0 -25 4 -35 16
-35 22 0 53 32 36 38 -16 5 -16 29 1 35 6 2 8 8 4 13 -4 5 -12 2 -17 -6 -7
-12 -12 -11 -28 8 -24 27 -32 28 -32 2z"/>
<path d="M5780 5810 c0 -15 7 -20 29 -20 16 0 32 6 35 13 5 10 7 10 12 0 9
-20 24 -15 24 7 0 17 -7 20 -50 20 -43 0 -50 -3 -50 -20z"/>
<path d="M5580 5780 c0 -5 -5 -10 -11 -10 -16 0 -39 -26 -39 -44 0 -10 9 -16
23 -16 17 0 19 -2 8 -9 -12 -8 -12 -12 2 -25 11 -12 17 -13 20 -3 4 9 8 9 15
-2 9 -12 13 -12 26 2 9 8 16 20 16 26 0 6 9 11 20 11 16 0 20 7 20 30 0 17 -4
30 -10 30 -5 0 -10 -4 -10 -10 0 -5 -4 -10 -10 -10 -5 0 -10 9 -10 20 0 16 -7
20 -30 20 -16 0 -30 -4 -30 -10z"/>
<path d="M5890 5770 c0 -13 7 -20 20 -20 13 0 20 7 20 20 0 13 -7 20 -20 20
-13 0 -20 -7 -20 -20z"/>
<path d="M5780 5760 c0 -5 5 -10 10 -10 6 0 10 5 10 10 0 6 -4 10 -10 10 -5 0
-10 -4 -10 -10z"/>
<path d="M5970 5720 c0 -5 7 -10 15 -10 8 0 15 5 15 10 0 6 -7 10 -15 10 -8 0
-15 -4 -15 -10z"/>
<path d="M6110 5720 c0 -5 5 -10 10 -10 6 0 10 5 10 10 0 6 -4 10 -10 10 -5 0
-10 -4 -10 -10z"/>
<path d="M5330 5695 c0 -9 9 -15 25 -15 16 0 25 6 25 15 0 9 -9 15 -25 15 -16
0 -25 -6 -25 -15z"/>
<path d="M5890 5695 c0 -8 9 -15 20 -15 11 0 20 7 20 15 0 8 -9 15 -20 15 -11
0 -20 -7 -20 -15z"/>
<path d="M5970 5690 c0 -5 5 -10 10 -10 6 0 10 5 10 10 0 6 -4 10 -10 10 -5 0
-10 -4 -10 -10z"/>
<path d="M5640 5660 c0 -11 -4 -20 -10 -20 -25 0 -7 -16 20 -18 27 -2 30 0 30
28 0 23 -4 30 -20 30 -13 0 -20 -7 -20 -20z"/>
<path d="M5690 5630 c0 -5 25 -10 55 -10 30 0 55 5 55 10 0 6 -25 10 -55 10
-30 0 -55 -4 -55 -10z"/>
<path d="M5890 5621 c0 -5 5 -13 10 -16 6 -3 10 -2 10 4 0 5 -4 13 -10 16 -5
3 -10 2 -10 -4z"/>
<path d="M5950 5590 c0 -5 12 -10 26 -10 14 0 23 4 19 10 -3 6 -15 10 -26 10
-10 0 -19 -4 -19 -10z"/>
<path d="M6498 5423 c-30 -8 -22 -26 9 -22 3 0 10 -6 15 -15 11 -20 28 -21 28
-1 0 8 -4 15 -10 15 -5 0 -10 7 -10 15 0 15 -2 16 -32 8z"/>
<path d="M4430 5309 c0 -5 5 -7 10 -4 6 3 10 8 10 11 0 2 -4 4 -10 4 -5 0 -10
-5 -10 -11z"/>
<path d="M4732 4950 c0 -14 2 -19 5 -12 2 6 2 18 0 25 -3 6 -5 1 -5 -13z"/>
<path d="M4910 5180 c0 -5 5 -10 10 -10 6 0 10 5 10 10 0 6 -4 10 -10 10 -5 0
-10 -4 -10 -10z"/>
<path d="M5280 4514 c0 -8 -4 -12 -10 -9 -5 3 -10 0 -10 -8 0 -8 8 -17 18 -19
15 -4 17 0 14 23 -5 31 -12 39 -12 13z"/>
<path d="M5302 4440 c0 -14 2 -19 5 -12 2 6 2 18 0 25 -3 6 -5 1 -5 -13z"/>
<path d="M5290 4390 c0 -24 15 -27 24 -4 9 22 8 24 -9 24 -8 0 -15 -9 -15 -20z"/>
<path d="M6911 4166 c-9 -11 -6 -13 14 -13 20 0 23 2 14 13 -6 8 -13 14 -14
14 -1 0 -8 -6 -14 -14z"/>
<path d="M6836 4116 c-30 -40 -31 -43 -11 -43 8 0 15 6 15 12 0 7 9 20 20 30
11 10 20 22 20 27 0 18 -19 7 -44 -26z"/>
<path d="M5530 4110 c5 -16 7 -30 5 -32 -2 -2 4 -9 15 -16 16 -10 20 -8 25 8
8 25 25 17 25 -11 0 -11 5 -17 10 -14 6 3 10 2 10 -3 0 -17 51 -21 57 -5 8 20
-11 35 -89 71 l-66 30 8 -28z m40 -21 c0 -11 -4 -17 -10 -14 -5 3 -10 13 -10
21 0 8 5 14 10 14 6 0 10 -9 10 -21z"/>
<path d="M5180 3910 c0 -5 5 -10 10 -10 6 0 10 5 10 10 0 6 -4 10 -10 10 -5 0
-10 -4 -10 -10z"/>
<path d="M5330 3910 c0 -5 5 -10 10 -10 6 0 10 5 10 10 0 6 -4 10 -10 10 -5 0
-10 -4 -10 -10z"/>
<path d="M5171 3754 c-12 -14 -12 -17 0 -25 20 -12 37 -11 19 2 -11 8 -12 12
-2 16 13 5 17 23 5 23 -5 -1 -14 -8 -22 -16z"/>
<path d="M5220 3760 c0 -5 5 -10 10 -10 6 0 10 5 10 10 0 6 -4 10 -10 10 -5 0
-10 -4 -10 -10z"/>
<path d="M6378 3703 c6 -2 18 -2 25 0 6 3 1 5 -13 5 -14 0 -19 -2 -12 -5z"/>
<path d="M5180 3690 c0 -5 5 -10 10 -10 6 0 10 5 10 10 0 6 -4 10 -10 10 -5 0
-10 -4 -10 -10z"/>
<path d="M5780 3694 c0 -3 6 -12 14 -20 16 -15 32 -2 21 16 -7 11 -35 14 -35
4z"/>
<path d="M6414 3644 c3 -9 6 -18 6 -20 0 -3 5 -2 10 1 16 10 12 35 -6 35 -11
0 -14 -5 -10 -16z"/>
<path d="M5995 3600 c-3 -5 1 -10 9 -10 9 0 16 5 16 10 0 6 -4 10 -9 10 -6 0
-13 -4 -16 -10z"/>
<path d="M6087 3603 c-13 -13 -7 -53 8 -53 8 0 15 9 15 20 0 12 7 20 18 20 14
0 15 2 2 10 -18 11 -34 13 -43 3z"/>
<path d="M5665 3580 c3 -5 8 -10 11 -10 2 0 4 5 4 10 0 6 -5 10 -11 10 -5 0
-7 -4 -4 -10z"/>
<path d="M6040 3560 c0 -5 5 -10 10 -10 6 0 10 5 10 10 0 6 -4 10 -10 10 -5 0
-10 -4 -10 -10z"/>
<path d="M5686 3534 c-9 -24 -7 -27 9 -10 17 17 19 26 6 26 -5 0 -12 -7 -15
-16z"/>
<path d="M6370 3540 c0 -5 9 -10 20 -10 11 0 20 5 20 10 0 6 -9 10 -20 10 -11
0 -20 -4 -20 -10z"/>
<path d="M5690 3460 c0 -5 5 -10 10 -10 6 0 10 5 10 10 0 6 -4 10 -10 10 -5 0
-10 -4 -10 -10z"/>
<path d="M5360 3430 c0 -5 5 -10 10 -10 6 0 10 5 10 10 0 6 -4 10 -10 10 -5 0
-10 -4 -10 -10z"/>
<path d="M5470 3390 c0 -5 5 -10 10 -10 6 0 10 5 10 10 0 6 -4 10 -10 10 -5 0
-10 -4 -10 -10z"/>
<path d="M2206 4705 c4 -8 10 -15 15 -15 4 0 6 7 3 15 -4 8 -10 15 -15 15 -4
0 -6 -7 -3 -15z"/>
<path d="M1970 4693 c0 -13 5 -23 10 -23 13 0 13 11 0 30 -8 12 -10 11 -10 -7z"/>
<path d="M2080 4700 c0 -5 5 -10 10 -10 6 0 10 5 10 10 0 6 -4 10 -10 10 -5 0
-10 -4 -10 -10z"/>
<path d="M4540 3520 c0 -5 5 -10 10 -10 6 0 10 5 10 10 0 6 -4 10 -10 10 -5 0
-10 -4 -10 -10z"/>
<path d="M4557 3346 c-6 -14 1 -26 14 -26 4 0 7 9 6 20 -1 23 -12 26 -20 6z"/>
<path d="M4420 2869 c0 -5 5 -7 10 -4 6 3 10 8 10 11 0 2 -4 4 -10 4 -5 0 -10
-5 -10 -11z"/>
<path d="M5020 2790 c0 -5 5 -10 10 -10 6 0 10 5 10 10 0 6 -4 10 -10 10 -5 0
-10 -4 -10 -10z"/>
<path d="M5050 2790 c0 -5 5 -10 10 -10 6 0 10 5 10 10 0 6 -4 10 -10 10 -5 0
-10 -4 -10 -10z"/>
<path d="M5090 2790 c0 -5 5 -10 10 -10 6 0 10 5 10 10 0 6 -4 10 -10 10 -5 0
-10 -4 -10 -10z"/>
<path d="M5200 2790 c0 -5 9 -10 20 -10 11 0 20 -4 20 -10 0 -15 60 -12 76 4
23 23 17 26 -51 26 -37 0 -65 -4 -65 -10z"/>
<path d="M5090 2720 c0 -5 9 -10 20 -10 11 0 20 -4 20 -10 0 -5 5 -10 10 -10
6 0 10 9 10 20 0 16 -7 20 -30 20 -16 0 -30 -4 -30 -10z"/>
<path d="M4373 2603 c9 -2 25 -2 35 0 9 3 1 5 -18 5 -19 0 -27 -2 -17 -5z"/>
<path d="M4395 2560 c-11 -13 -14 -20 -6 -20 13 0 41 24 41 34 0 12 -18 5 -35
-14z"/>
<path d="M2390 4320 c0 -5 -10 -10 -22 -10 -12 0 -19 -3 -15 -6 9 -9 57 5 57
16 0 6 -4 10 -10 10 -5 0 -10 -4 -10 -10z"/>
<path d="M2456 4283 c-8 -21 -3 -25 27 -21 l25 3 -23 17 c-21 16 -24 16 -29 1z"/>
<path d="M2550 4190 c0 -5 5 -10 10 -10 6 0 10 5 10 10 0 6 -4 10 -10 10 -5 0
-10 -4 -10 -10z"/>
<path d="M2665 4190 c-3 -5 -1 -10 4 -10 6 0 11 5 11 10 0 6 -2 10 -4 10 -3 0
-8 -4 -11 -10z"/>
<path d="M2780 4160 c20 -13 50 -13 50 0 0 6 -15 10 -32 10 -25 0 -29 -3 -18
-10z"/>
<path d="M2760 4090 c0 -11 7 -20 15 -20 8 0 15 5 15 10 0 6 9 10 20 10 11 0
20 5 20 10 0 6 -16 10 -35 10 -28 0 -35 -4 -35 -20z"/>
<path d="M2680 4060 c0 -5 9 -10 20 -10 11 0 20 5 20 10 0 6 -9 10 -20 10 -11
0 -20 -4 -20 -10z"/>
<path d="M2680 3940 c0 -24 6 -25 26 -6 19 20 18 26 -6 26 -13 0 -20 -7 -20
-20z"/>
<path d="M2790 3950 c0 -5 5 -10 10 -10 6 0 10 5 10 10 0 6 -4 10 -10 10 -5 0
-10 -4 -10 -10z"/>
<path d="M2023 4193 c-7 -15 -10 -29 -7 -32 4 -3 9 0 11 7 3 7 11 19 19 26 17
18 18 26 2 26 -7 0 -19 -12 -25 -27z"/>
<path d="M2170 3859 c0 -5 5 -7 10 -4 6 3 10 8 10 11 0 2 -4 4 -10 4 -5 0 -10
-5 -10 -11z"/>
<path d="M3410 4130 c0 -13 7 -20 20 -20 13 0 20 7 20 20 0 13 -7 20 -20 20
-13 0 -20 -7 -20 -20z"/>
<path d="M5110 3950 c0 -5 5 -10 10 -10 6 0 10 5 10 10 0 6 -4 10 -10 10 -5 0
-10 -4 -10 -10z"/>
<path d="M2770 3500 c0 -5 5 -10 10 -10 6 0 10 5 10 10 0 6 -4 10 -10 10 -5 0
-10 -4 -10 -10z"/>
<path d="M3280 3240 c0 -5 5 -10 10 -10 6 0 10 5 10 10 0 6 -4 10 -10 10 -5 0
-10 -4 -10 -10z"/>
<path d="M4725 2039 c-36 -11 -71 -36 -62 -45 3 -4 20 -2 37 5 16 6 44 16 60
22 59 22 28 37 -35 18z"/>
<path d="M2142 1035 c-19 -41 -15 -62 13 -67 36 -7 60 22 48 59 -13 38 -46 42
-61 8z"/>
</g>
</svg>
